<svg width="46" height="19" viewBox="0 0 46 19" fill="none" xmlns="http://www.w3.org/2000/svg">
<path d="M45.9995 9.49962C45.9744 9.28686 45.8558 9.00261 45.6661 8.84321L35.6658 0.343125C35.2296 -0.100875 34.3302 -0.0994739 33.7769 0.263603C33.2235 0.62703 33.1812 1.27228 33.6662 1.6556L41.7291 8.49931H1.33324C0.597083 8.49931 0 8.94714 0 9.49924C0 10.0517 0.597106 10.4992 1.33324 10.4992H41.7291L33.6662 17.3429C33.137 17.7262 33.2858 18.3833 33.8397 18.7467C34.393 19.1102 35.2302 19.084 35.6664 18.6557L45.6666 10.1556C45.934 9.93835 45.9841 9.70331 45.9995 9.49962Z" fill="#F8E47F"/>
</svg>
