<?xml version="1.0" encoding="utf-8"?>
<svg width="46" height="19" viewBox="0 0 46 19" fill="none" xmlns="http://www.w3.org/2000/svg">
<path d="M-0.000464563 9.50038C0.0246476 9.71313 0.143227 9.99739 0.33297 10.1568L10.3332 18.6569C10.7694 19.1009 11.6688 19.0995 12.2221 18.7364C12.7755 18.373 12.8179 17.7277 12.3328 17.3444L4.26992 10.5007L44.6658 10.5007C45.4019 10.5007 45.999 10.0529 45.999 9.50076C45.999 8.94829 45.4019 8.50083 44.6658 8.50083L4.26992 8.50083L12.3328 1.65711C12.862 1.2738 12.7132 0.616738 12.1594 0.253249C11.606 -0.110177 10.7689 -0.0840218 10.3327 0.344273L0.332467 8.84436C0.0650682 9.06165 0.014882 9.29669 -0.000464563 9.50038Z" fill="black"/>
</svg>
