<?xml version="1.0" encoding="utf-8"?>
<svg width="83" height="62" viewBox="0 0 83 62" fill="none" xmlns="http://www.w3.org/2000/svg">
<g filter="url(#filter0_d_1301_730)">
<path d="M3.81084 19.4774L3.77264 27.1138L50.5687 54.408L77.3354 38.6738L77.3408 30.1245L31.1531 3.16309" fill="white"/>
</g>
<path d="M75.6592 31.4233L50.5688 46.0577L5.97182 20.0465L31.0622 5.41211L75.6592 31.4233Z" fill="#333333"/>
<path d="M39.0354 16.7299L56.2537 26.7729C56.7977 27.0902 56.7298 27.6447 56.1015 28.0111L46.5962 33.5552C45.9679 33.9216 45.0176 33.9614 44.473 33.644L27.2546 23.601C26.7106 23.2837 26.7785 22.7292 27.4068 22.3628L36.9121 16.8187C37.5404 16.4523 38.4907 16.4125 39.0354 16.7299Z" fill="#E6E6E6"/>
<path d="M16.7731 17.4875L23.6802 21.5164C24.2648 21.8577 25.2128 21.8577 25.798 21.5164L35.4609 15.8804C36.0456 15.5392 36.0456 14.9865 35.4609 14.6453L28.6181 10.6543C25.7228 10.8932 22.9312 11.6622 20.7042 12.961C18.5161 14.2372 17.2073 15.8314 16.7731 17.4881V17.4875Z" fill="#808080"/>
<path d="M23.3278 14.4907C20.9292 15.8895 19.9668 17.8084 20.438 19.6249L23.6808 21.5163C24.2654 21.8575 25.2134 21.8575 25.798 21.5163L35.4609 15.8803C36.0456 15.539 36.0456 14.9864 35.4609 14.6451L32.3418 12.8261C29.1651 12.5062 25.7804 13.0601 23.3272 14.4907H23.3278Z" fill="#171717"/>
<path d="M27.7782 20.3622L33.3936 17.0874C31.8434 16.1831 29.3296 16.1831 27.7788 17.0874C26.2281 17.9917 26.2281 19.4579 27.7788 20.3622H27.7782Z" fill="#E6E6E6"/>
<path d="M54.9554 39.7576L48.0483 35.7287C47.4637 35.3874 47.4637 34.8348 48.0483 34.4935L57.7112 28.8575C58.2959 28.5162 59.2444 28.5162 59.829 28.8575L66.6719 32.8485C66.2619 34.537 64.944 36.1655 62.7171 37.4644C60.5289 38.7406 57.7961 39.504 54.9554 39.757V39.7576Z" fill="#808080"/>
<path d="M48.0474 35.7287L50.7911 37.329C53.9442 37.7162 57.3598 37.1973 59.8088 35.7691C62.3165 34.3067 63.1904 32.253 62.4342 30.3776L59.8282 28.8575C59.2435 28.5162 58.2956 28.5162 57.711 28.8575L48.048 34.4935C47.4634 34.8348 47.4634 35.3874 48.048 35.7287H48.0474Z" fill="#171717"/>
<path d="M50.5689 46.0577L53.4642 44.3691L57.3359 42.1108L56.5299 41.6409L52.6582 43.8992L9.67264 18.8279L13.5444 16.5695L12.739 16.0996L8.86724 18.3579L5.97194 20.0465L50.5689 46.0577Z" fill="#212121"/>
<path d="M50.0277 33.3392L55.6431 30.0645C57.1932 30.9688 57.1932 32.4349 55.6431 33.3392C54.0923 34.2435 51.5791 34.2435 50.0283 33.3392H50.0277Z" fill="#E6E6E6"/>
<path d="M50.5693 52.2365L5.97236 26.2247V20.0459L50.5693 46.0571V52.2365Z" fill="#171717"/>
<path d="M75.6543 37.6046V31.4258L50.5688 46.0571V52.2366L75.6543 37.6046Z" fill="#212121"/>
<path d="M57.335 43.9478C57.335 42.9339 56.6302 42.5228 55.7612 43.0294L50.5692 46.0579V52.2367L56.3349 46.2411C56.9383 45.6137 57.335 44.7039 57.335 43.9478Z" fill="#171717"/>
<path d="M57.3359 42.1104V43.9478L55.351 44.3111L55.7603 43.0294L57.3359 42.1104Z" fill="#171717"/>
<defs>
<filter id="filter0_d_1301_730" x="3.77246" y="3.16309" width="74.5684" height="52.2451" filterUnits="userSpaceOnUse" color-interpolation-filters="sRGB">
<feFlood flood-opacity="0" result="BackgroundImageFix"/>
<feColorMatrix in="SourceAlpha" type="matrix" values="0 0 0 0 0 0 0 0 0 0 0 0 0 0 0 0 0 0 127 0" result="hardAlpha"/>
<feOffset dx="1" dy="1"/>
<feComposite in2="hardAlpha" operator="out"/>
<feColorMatrix type="matrix" values="0 0 0 0 0 0 0 0 0 0 0 0 0 0 0 0 0 0 1 0"/>
<feBlend mode="normal" in2="BackgroundImageFix" result="effect1_dropShadow_1301_730"/>
<feBlend mode="normal" in="SourceGraphic" in2="effect1_dropShadow_1301_730" result="shape"/>
</filter>
</defs>
</svg>
