<?xml version="1.0" encoding="utf-8"?>
<svg width="83" height="62" viewBox="0 0 83 62" fill="none" xmlns="http://www.w3.org/2000/svg">
<path fill-rule="evenodd" clip-rule="evenodd" d="M6.12632 31.3955L3.77246 26.4679L6.12632 21.6172L29.1927 8.29089L33.7333 6.95898H39.3092L76.0373 29.4509L78.5982 35.7104L76.1826 41.1078L49.3021 57.5712L6.12632 31.3955Z" fill="white"/>
<path fill-rule="evenodd" clip-rule="evenodd" d="M8.43262 28.9631L31.9966 15.2075C33.9146 14.0884 36.1086 14.0884 38.0265 15.2075L72.706 35.4318C73.4252 35.8501 73.8357 36.5729 73.8357 37.4095C73.8357 38.2461 73.4216 38.9689 72.706 39.3872L49.5161 52.9227L8.43262 28.9631Z" fill="#7FC8C5"/>
<path fill-rule="evenodd" clip-rule="evenodd" d="M33.1706 11.6882C35.0486 10.5948 37.1954 10.5948 39.0734 11.6882L71.5261 30.6137C72.2308 31.0246 72.634 31.7291 72.634 32.551V36.7265C72.634 37.5484 72.2308 38.2529 71.5261 38.6638L48.2927 52.214L9.57031 29.6267V25.4512L33.1706 11.6882Z" fill="#F7BFBA"/>
<path fill-rule="evenodd" clip-rule="evenodd" d="M9.57031 25.4334L33.1706 11.6667C35.0486 10.5733 37.1954 10.5733 39.0734 11.6667L71.5261 30.5922C72.2308 31.0032 72.634 31.7076 72.634 32.5295C72.634 33.3514 72.2308 34.0559 71.5261 34.4668L48.2927 48.017L9.57031 25.4334Z" fill="#F0F9FF"/>
<path fill-rule="evenodd" clip-rule="evenodd" d="M48.292 48.0168V52.2143L65.7389 42.0397L71.5254 38.6641C72.2301 38.2532 72.6333 37.5487 72.6333 36.7268V32.5293C72.6333 32.9769 72.5135 33.3915 72.2883 33.7401C72.103 34.03 71.8451 34.2795 71.5254 34.4629L48.292 48.0131V48.0168Z" fill="#FFDCD9"/>
<path fill-rule="evenodd" clip-rule="evenodd" d="M8.43262 24.7688L31.9966 11.0131C33.9146 9.89406 36.1086 9.89406 38.0265 11.0131L72.706 31.2375C73.4252 31.6558 73.8357 32.3786 73.8357 33.2152C73.8357 34.0517 73.4216 34.7746 72.706 35.1928L49.5161 48.7283L8.43262 24.7688Z" fill="#7FC8C5"/>
<path fill-rule="evenodd" clip-rule="evenodd" d="M26.0361 14.4915L27.4237 13.6807L68.5109 37.6439L67.1233 38.4511L26.0361 14.4915Z" fill="#2D9793"/>
<path fill-rule="evenodd" clip-rule="evenodd" d="M67.123 38.4517L68.5107 37.6445L68.5143 41.8384L67.1267 42.6456L67.123 38.4517Z" fill="#2D9793"/>
<g style="mix-blend-mode:multiply" opacity="0.27">
<path fill-rule="evenodd" clip-rule="evenodd" d="M67.123 38.4517L68.5107 37.6445L68.5143 41.8384L67.1267 42.6456L67.123 38.4517Z" fill="#2D9793"/>
</g>
<mask id="mask0_1301_1037" style="mask-type:luminance" maskUnits="userSpaceOnUse" x="8" y="24" width="6" height="7">
<path d="M13.587 24.71H8.44336V30.5402H13.587V24.71Z" fill="white"/>
</mask>
<g mask="url(#mask0_1301_1037)">
<path fill-rule="evenodd" clip-rule="evenodd" d="M13.5874 25.4294L12.5413 26.0385L11.4951 25.4294L12.5413 24.8203L13.5874 25.4294Z" fill="#F7BFBA"/>
<path d="M9.86388 30.5406C9.59144 30.5406 9.3408 30.4636 9.12648 30.3168C8.71601 30.0343 8.47626 29.5096 8.4472 28.8418C8.41814 28.1594 8.61067 27.3852 8.99208 26.6697C9.37349 25.9505 9.89657 25.3671 10.4705 25.0222C10.9318 24.7471 11.3932 24.648 11.8 24.7434C12.2177 24.8388 12.5483 25.136 12.7372 25.5763C12.7844 25.6827 12.7372 25.8074 12.6282 25.8551C12.5192 25.9028 12.3994 25.8515 12.3521 25.7451C12.2177 25.4258 11.9961 25.224 11.7092 25.158C11.4077 25.0883 11.0517 25.169 10.6848 25.3892C10.1763 25.6937 9.70768 26.2184 9.36259 26.8715C9.01751 27.5246 8.84315 28.2181 8.86857 28.8271C8.89037 29.3592 9.06836 29.7628 9.36622 29.9683C9.65682 30.1701 10.0528 30.1701 10.4814 29.9683C10.5867 29.9206 10.7102 29.9683 10.7611 30.071C10.812 30.1774 10.7647 30.3021 10.6594 30.3535C10.387 30.4819 10.1182 30.548 9.86751 30.548L9.86388 30.5406Z" fill="#2D9793"/>
<path fill-rule="evenodd" clip-rule="evenodd" d="M9.92188 28.6221V29.8402L10.968 30.453V29.2311L9.92188 28.6221Z" fill="#F7BFBA"/>
</g>
<mask id="mask1_1301_1037" style="mask-type:luminance" maskUnits="userSpaceOnUse" x="10" y="25" width="6" height="7">
<path d="M15.4727 25.8076H10.3291V31.6379H15.4727V25.8076Z" fill="white"/>
</mask>
<g mask="url(#mask1_1301_1037)">
<path fill-rule="evenodd" clip-rule="evenodd" d="M15.4732 26.531L14.427 27.14L13.3809 26.531L14.427 25.9219L15.4732 26.531Z" fill="#F7BFBA"/>
<path d="M11.7496 31.6417C11.4772 31.6417 11.2265 31.5684 11.0122 31.4179C10.6018 31.1354 10.362 30.6107 10.3329 29.9429C10.3039 29.2605 10.4964 28.4863 10.8778 27.7708C11.2592 27.0516 11.7823 26.4682 12.3562 26.1233C12.8176 25.8445 13.2789 25.7491 13.6857 25.8445C14.0998 25.9399 14.434 26.2371 14.6229 26.6774C14.6701 26.7838 14.6229 26.9085 14.5139 26.9562C14.405 27.0039 14.2851 26.9526 14.2379 26.8462C14.1035 26.5269 13.8819 26.3251 13.5949 26.2591C13.2934 26.1894 12.9374 26.2701 12.5706 26.4903C12.062 26.7948 11.5934 27.3195 11.2483 27.9726C10.9032 28.6257 10.7289 29.3192 10.7543 29.9282C10.7761 30.4603 10.9541 30.8639 11.252 31.0694C11.5426 31.2712 11.9385 31.2712 12.3671 31.0694C12.4725 31.0217 12.596 31.0657 12.6468 31.1721C12.6977 31.2785 12.6505 31.4032 12.5451 31.4546C12.2727 31.583 12.0039 31.6491 11.7532 31.6491L11.7496 31.6417Z" fill="#2D9793"/>
<path fill-rule="evenodd" clip-rule="evenodd" d="M11.8076 29.7227V30.9408L12.8538 31.5499V30.3317L11.8076 29.7227Z" fill="#F7BFBA"/>
</g>
<mask id="mask2_1301_1037" style="mask-type:luminance" maskUnits="userSpaceOnUse" x="12" y="26" width="6" height="7">
<path d="M17.3614 26.9082H12.2178V32.7385H17.3614V26.9082Z" fill="white"/>
</mask>
<g mask="url(#mask2_1301_1037)">
<path fill-rule="evenodd" clip-rule="evenodd" d="M17.3579 27.6303L16.3118 28.2394L15.2656 27.6303L16.3118 27.0176L17.3579 27.6303Z" fill="#F7BFBA"/>
<path d="M13.6383 32.7418C13.3659 32.7418 13.1152 32.6684 12.9009 32.518C12.4904 32.2355 12.2507 31.7108 12.2216 31.043C12.1926 30.3605 12.3851 29.5863 12.7665 28.8709C13.1479 28.1517 13.671 27.5683 14.2449 27.2234C14.7062 26.9482 15.1676 26.8492 15.5744 26.9446C15.9885 27.04 16.3227 27.3372 16.5116 27.7775C16.5588 27.8839 16.5116 28.0086 16.4026 28.0563C16.2973 28.104 16.1738 28.0526 16.1265 27.9462C15.9921 27.627 15.7706 27.4252 15.4836 27.3592C15.1821 27.2895 14.8261 27.3702 14.4592 27.5903C13.9507 27.8949 13.4821 28.4196 13.137 29.0727C12.7919 29.7258 12.6176 30.4192 12.643 31.0283C12.6648 31.5603 12.8428 31.964 13.1406 32.1694C13.4312 32.3712 13.8272 32.3676 14.2558 32.1694C14.3612 32.1217 14.4847 32.1658 14.5355 32.2722C14.5864 32.3786 14.5391 32.5033 14.4338 32.5547C14.1614 32.6831 13.8926 32.7491 13.6419 32.7491L13.6383 32.7418Z" fill="#2D9793"/>
<path fill-rule="evenodd" clip-rule="evenodd" d="M13.6963 30.8193V32.0412L14.7424 32.6502V31.4321L13.6963 30.8193Z" fill="#F7BFBA"/>
</g>
<mask id="mask3_1301_1037" style="mask-type:luminance" maskUnits="userSpaceOnUse" x="14" y="28" width="6" height="6">
<path d="M19.2471 28.0088H14.1035V33.8391H19.2471V28.0088Z" fill="white"/>
</mask>
<g mask="url(#mask3_1301_1037)">
<path fill-rule="evenodd" clip-rule="evenodd" d="M19.2473 28.7309L18.2012 29.34L17.1514 28.7309L18.2012 28.1182L19.2473 28.7309Z" fill="#F7BFBA"/>
<path d="M15.524 33.8424C15.2516 33.8424 15.001 33.769 14.7866 33.6186C14.3762 33.3361 14.1364 32.8114 14.1074 32.1436C14.0783 31.4611 14.2708 30.6869 14.6522 29.9714C15.0336 29.2523 15.5567 28.6689 16.1307 28.324C16.592 28.0488 17.0533 27.9497 17.4602 28.0451C17.8743 28.1405 18.2084 28.4377 18.3973 28.878C18.4446 28.9844 18.3973 29.1092 18.2884 29.1569C18.1794 29.2046 18.0595 29.1532 18.0123 29.0468C17.8779 28.7276 17.6563 28.5258 17.3693 28.4598C17.0678 28.39 16.7119 28.4708 16.345 28.6909C15.8364 28.9954 15.3678 29.5201 15.0227 30.1732C14.6777 30.8264 14.5033 31.5198 14.5287 32.1289C14.5505 32.6609 14.7285 33.0645 15.0264 33.27C15.317 33.4718 15.7129 33.4718 16.1416 33.27C16.2469 33.2186 16.3704 33.27 16.4213 33.3727C16.4721 33.4792 16.4249 33.6039 16.3195 33.6553C16.0471 33.7837 15.7783 33.8497 15.5277 33.8497L15.524 33.8424Z" fill="#2D9793"/>
<path fill-rule="evenodd" clip-rule="evenodd" d="M15.582 31.9199V33.1417L16.6282 33.7508V32.5327L15.582 31.9199Z" fill="#F7BFBA"/>
</g>
<mask id="mask4_1301_1037" style="mask-type:luminance" maskUnits="userSpaceOnUse" x="15" y="29" width="7" height="6">
<path d="M21.1319 29.1094H15.9883V34.9397H21.1319V29.1094Z" fill="white"/>
</mask>
<g mask="url(#mask4_1301_1037)">
<path fill-rule="evenodd" clip-rule="evenodd" d="M21.1324 29.8288L20.0862 30.4416L19.04 29.8288L20.0862 29.2197L21.1324 29.8288Z" fill="#F7BFBA"/>
<path d="M17.4088 34.9435C17.1364 34.9435 16.8857 34.8701 16.6714 34.7197C16.2609 34.4372 16.0212 33.9125 15.9921 33.2447C15.9631 32.5622 16.1556 31.788 16.537 31.0725C16.9184 30.3534 17.4415 29.77 18.0154 29.4251C18.4768 29.1462 18.9381 29.0508 19.3449 29.1462C19.759 29.2416 20.0932 29.5388 20.2821 29.9791C20.3293 30.0855 20.2821 30.2103 20.1731 30.258C20.0642 30.3057 19.9443 30.2543 19.8971 30.1479C19.7627 29.8287 19.5411 29.6269 19.2541 29.5609C18.9526 29.4911 18.5966 29.5719 18.2297 29.792C17.7212 30.0966 17.2526 30.6212 16.9075 31.2743C16.5624 31.9275 16.3881 32.6209 16.4135 33.23C16.4353 33.762 16.6133 34.1656 16.9111 34.3711C17.2017 34.5729 17.5977 34.5692 18.0263 34.3711C18.1317 34.3197 18.2552 34.3674 18.306 34.4738C18.3569 34.5802 18.3097 34.705 18.2043 34.7564C17.9319 34.8848 17.6631 34.9508 17.4124 34.9508L17.4088 34.9435Z" fill="#2D9793"/>
<path fill-rule="evenodd" clip-rule="evenodd" d="M17.4668 33.0205V34.2423L18.513 34.8514V33.6296L17.4668 33.0205Z" fill="#F7BFBA"/>
</g>
<mask id="mask5_1301_1037" style="mask-type:luminance" maskUnits="userSpaceOnUse" x="17" y="30" width="7" height="7">
<path d="M23.0206 30.21H17.877V36.0402H23.0206V30.21Z" fill="white"/>
</mask>
<g mask="url(#mask5_1301_1037)">
<path fill-rule="evenodd" clip-rule="evenodd" d="M23.0171 30.9294L21.971 31.5385L20.9248 30.9294L21.971 30.3203L23.0171 30.9294Z" fill="#F7BFBA"/>
<path d="M19.2975 36.0406C19.025 36.0406 18.7744 35.9673 18.5601 35.8168C18.1496 35.5343 17.9099 35.0096 17.8808 34.3418C17.8517 33.6594 18.0443 32.8852 18.4257 32.1697C18.8071 31.4505 19.3302 30.8671 19.9041 30.5222C20.3654 30.2471 20.8268 30.148 21.2336 30.2434C21.6477 30.3388 21.9819 30.636 22.1708 31.0763C22.218 31.1827 22.1708 31.3074 22.0618 31.3551C21.9565 31.4028 21.833 31.3515 21.7857 31.2451C21.6513 30.9258 21.4297 30.724 21.1428 30.658C20.8413 30.5883 20.4853 30.669 20.1184 30.8892C19.6099 31.1937 19.1413 31.7184 18.7962 32.3715C18.4511 33.0246 18.2767 33.7181 18.3022 34.3271C18.324 34.8592 18.502 35.2628 18.7998 35.4683C19.0904 35.6701 19.4864 35.6664 19.915 35.4683C20.0203 35.4169 20.1438 35.4646 20.1947 35.571C20.2456 35.6774 20.1983 35.8021 20.093 35.8535C19.8205 35.9819 19.5517 36.048 19.3011 36.048L19.2975 36.0406Z" fill="#2D9793"/>
<path fill-rule="evenodd" clip-rule="evenodd" d="M19.3555 34.1221V35.3402L20.4016 35.953V34.7312L19.3555 34.1221Z" fill="#F7BFBA"/>
</g>
<mask id="mask6_1301_1037" style="mask-type:luminance" maskUnits="userSpaceOnUse" x="19" y="31" width="6" height="7">
<path d="M24.9063 31.3115H19.7627V37.1418H24.9063V31.3115Z" fill="white"/>
</mask>
<g mask="url(#mask6_1301_1037)">
<path fill-rule="evenodd" clip-rule="evenodd" d="M24.9065 32.031L23.8567 32.64L22.8105 32.031L23.8567 31.4219L24.9065 32.031Z" fill="#F7BFBA"/>
<path d="M21.1832 37.1422C20.9108 37.1422 20.6601 37.0688 20.4458 36.9184C20.0353 36.6359 19.7956 36.1112 19.7665 35.4434C19.7375 34.7609 19.93 33.9867 20.3114 33.2712C20.6928 32.5521 21.2159 31.9687 21.7898 31.6238C22.2512 31.3486 22.7125 31.2495 23.1193 31.3449C23.5334 31.4403 23.8676 31.7375 24.0565 32.1778C24.1037 32.2842 24.0565 32.409 23.9475 32.4567C23.8386 32.5044 23.7187 32.453 23.6715 32.3466C23.5371 32.0274 23.3155 31.8256 23.0285 31.7596C22.727 31.6898 22.371 31.7706 22.0042 31.9907C21.4956 32.2953 21.027 32.8199 20.6819 33.4731C20.3368 34.1262 20.1625 34.8196 20.1879 35.4287C20.2097 35.9607 20.3877 36.3643 20.6856 36.5698C20.9762 36.7716 21.3721 36.7679 21.8044 36.5698C21.9097 36.5221 22.0332 36.5698 22.0841 36.6726C22.1349 36.779 22.0877 36.9037 21.9824 36.9551C21.7099 37.0835 21.4411 37.1495 21.1905 37.1495L21.1832 37.1422Z" fill="#2D9793"/>
<path fill-rule="evenodd" clip-rule="evenodd" d="M21.2412 35.2236V36.4418L22.2874 37.0545V35.8327L21.2412 35.2236Z" fill="#F7BFBA"/>
</g>
<mask id="mask7_1301_1037" style="mask-type:luminance" maskUnits="userSpaceOnUse" x="21" y="32" width="6" height="7">
<path d="M26.792 32.4082H21.6484V38.2385H26.792V32.4082Z" fill="white"/>
</mask>
<g mask="url(#mask7_1301_1037)">
<path fill-rule="evenodd" clip-rule="evenodd" d="M26.7925 33.1303L25.7464 33.7394L24.7002 33.1303L25.7464 32.5176L26.7925 33.1303Z" fill="#F7BFBA"/>
<path d="M23.069 38.2418C22.7965 38.2418 22.5459 38.1684 22.3316 38.018C21.9211 37.7355 21.6813 37.2108 21.6523 36.543C21.6232 35.8605 21.8157 35.0863 22.1972 34.3709C22.5786 33.6517 23.1016 33.0683 23.6756 32.7234C24.1369 32.4482 24.5982 32.3492 25.0051 32.4446C25.4192 32.54 25.7534 32.8372 25.9423 33.2775C25.9895 33.3839 25.9423 33.5086 25.8333 33.5563C25.7279 33.604 25.6044 33.5526 25.5572 33.4462C25.4228 33.127 25.2012 32.9252 24.9143 32.8592C24.6128 32.7895 24.2568 32.8702 23.8899 33.0903C23.3813 33.3949 22.9128 33.9196 22.5677 34.5727C22.2226 35.2258 22.0482 35.9192 22.0737 36.5283C22.0954 37.0603 22.2734 37.464 22.5713 37.6694C22.8619 37.8712 23.2578 37.8676 23.6865 37.6694C23.7918 37.6217 23.9153 37.6694 23.9662 37.7722C24.017 37.8786 23.9698 38.0033 23.8645 38.0547C23.592 38.1831 23.3232 38.2491 23.0726 38.2491L23.069 38.2418Z" fill="#2D9793"/>
<path fill-rule="evenodd" clip-rule="evenodd" d="M23.127 36.3193V37.5412L24.1731 38.1502V36.9321L23.127 36.3193Z" fill="#F7BFBA"/>
</g>
<mask id="mask8_1301_1037" style="mask-type:luminance" maskUnits="userSpaceOnUse" x="23" y="33" width="6" height="7">
<path d="M28.6768 33.5088H23.5332V39.3391H28.6768V33.5088Z" fill="white"/>
</mask>
<g mask="url(#mask8_1301_1037)">
<path fill-rule="evenodd" clip-rule="evenodd" d="M28.6773 34.2309L27.6311 34.84L26.585 34.2309L27.6311 33.6182L28.6773 34.2309Z" fill="#F7BFBA"/>
<path d="M24.9537 39.3424C24.6813 39.3424 24.4306 39.269 24.2163 39.1186C23.8059 38.8361 23.5661 38.3114 23.537 37.6436C23.508 36.9611 23.7005 36.1869 24.0819 35.4714C24.4633 34.7523 24.9864 34.1689 25.5603 33.824C26.0217 33.5488 26.483 33.4497 26.8935 33.5451C27.3076 33.6405 27.6418 33.9377 27.8307 34.378C27.8779 34.4844 27.8307 34.6092 27.7217 34.6569C27.6127 34.7046 27.4928 34.6532 27.4456 34.5468C27.3112 34.2276 27.0896 34.0258 26.8027 33.9598C26.5012 33.89 26.1452 33.9708 25.7783 34.1909C25.2697 34.4955 24.8012 35.0201 24.4561 35.6732C24.111 36.3264 23.9366 37.0198 23.962 37.6289C23.9838 38.1609 24.1618 38.5645 24.4597 38.77C24.7503 38.9718 25.1462 38.9681 25.5749 38.77C25.6802 38.7223 25.8037 38.77 25.8546 38.8727C25.9054 38.9792 25.8582 39.1039 25.7529 39.1553C25.4804 39.2837 25.2116 39.3497 24.961 39.3497L24.9537 39.3424Z" fill="#2D9793"/>
<path fill-rule="evenodd" clip-rule="evenodd" d="M25.0117 37.4199V38.6417L26.0615 39.2508V38.0327L25.0117 37.4199Z" fill="#F7BFBA"/>
</g>
<mask id="mask9_1301_1037" style="mask-type:luminance" maskUnits="userSpaceOnUse" x="25" y="34" width="6" height="7">
<path d="M30.5655 34.6094H25.4219V40.4397H30.5655V34.6094Z" fill="white"/>
</mask>
<g mask="url(#mask9_1301_1037)">
<path fill-rule="evenodd" clip-rule="evenodd" d="M30.562 35.3278L29.5159 35.9406L28.4697 35.3278L29.5159 34.7188L30.562 35.3278Z" fill="#F7BFBA"/>
<path d="M26.8424 40.443C26.57 40.443 26.3193 40.3659 26.105 40.2192C25.6945 39.9366 25.4548 39.412 25.4257 38.7442C25.3967 38.0617 25.5892 37.2875 25.9706 36.572C26.352 35.8529 26.8751 35.2695 27.449 34.9246C27.9103 34.6494 28.3717 34.5503 28.7785 34.6457C29.1926 34.7411 29.5268 35.0383 29.7157 35.4786C29.7629 35.585 29.7157 35.7098 29.6067 35.7575C29.5014 35.8052 29.3779 35.7538 29.3307 35.6474C29.1962 35.3282 28.9747 35.1264 28.6877 35.0603C28.3862 34.9906 28.0302 35.0713 27.6633 35.2915C27.1548 35.596 26.6862 36.1207 26.3411 36.7738C25.996 37.4269 25.8217 38.1204 25.8471 38.7295C25.8689 39.2615 26.0469 39.6651 26.3447 39.8706C26.6353 40.0724 27.0313 40.0724 27.4635 39.8706C27.5689 39.8229 27.6924 39.8706 27.7433 39.9733C27.7941 40.0797 27.7469 40.2045 27.6415 40.2559C27.3691 40.3843 27.1003 40.4503 26.846 40.4503L26.8424 40.443Z" fill="#2D9793"/>
<path fill-rule="evenodd" clip-rule="evenodd" d="M26.9004 38.5205V39.7423L27.9466 40.3514V39.1296L26.9004 38.5205Z" fill="#F7BFBA"/>
</g>
<mask id="mask10_1301_1037" style="mask-type:luminance" maskUnits="userSpaceOnUse" x="27" y="35" width="6" height="7">
<path d="M32.4512 35.71H27.3076V41.5402H32.4512V35.71Z" fill="white"/>
</mask>
<g mask="url(#mask10_1301_1037)">
<path fill-rule="evenodd" clip-rule="evenodd" d="M32.4517 36.4294L31.4055 37.0421L30.3594 36.4294L31.4055 35.8203L32.4517 36.4294Z" fill="#F7BFBA"/>
<path d="M28.7281 41.5402C28.4557 41.5402 28.2051 41.4668 27.9907 41.3164C27.5803 41.0338 27.3405 40.5091 27.3115 39.8414C27.2824 39.1589 27.4749 38.3847 27.8563 37.6692C28.2377 36.9501 28.7608 36.3667 29.3348 36.0218C29.7961 35.7429 30.2574 35.6475 30.6643 35.7429C31.0784 35.8383 31.4125 36.1355 31.6014 36.5758C31.6487 36.6822 31.6014 36.807 31.4925 36.8547C31.3835 36.9024 31.2636 36.851 31.2164 36.7446C31.082 36.4254 30.8604 36.2236 30.5734 36.1575C30.2719 36.0878 29.916 36.1685 29.5491 36.3887C29.0405 36.6932 28.5719 37.2179 28.2268 37.871C27.8818 38.5241 27.7074 39.2176 27.7328 39.8267C27.7546 40.3587 27.9326 40.7623 28.2305 40.9678C28.5211 41.1696 28.917 41.1659 29.3457 40.9678C29.451 40.9201 29.5745 40.9641 29.6254 41.0705C29.6762 41.1769 29.629 41.3017 29.5236 41.3531C29.2512 41.4815 28.9824 41.5475 28.7281 41.5475V41.5402Z" fill="#2D9793"/>
<path fill-rule="evenodd" clip-rule="evenodd" d="M28.7861 39.6211V40.8429L29.8323 41.452V40.2302L28.7861 39.6211Z" fill="#F7BFBA"/>
</g>
<mask id="mask11_1301_1037" style="mask-type:luminance" maskUnits="userSpaceOnUse" x="29" y="36" width="6" height="7">
<path d="M34.336 36.8115H29.1924V42.6418H34.336V36.8115Z" fill="white"/>
</mask>
<g mask="url(#mask11_1301_1037)">
<path fill-rule="evenodd" clip-rule="evenodd" d="M34.3365 37.531L33.2903 38.14L32.2441 37.531L33.2903 36.9219L34.3365 37.531Z" fill="#F7BFBA"/>
<path d="M30.6129 42.6422C30.3405 42.6422 30.0898 42.5688 29.8755 42.4184C29.465 42.1359 29.2253 41.6112 29.1962 40.9434C29.1672 40.2609 29.3597 39.4867 29.7411 38.7712C30.1225 38.0521 30.6456 37.4687 31.2195 37.1238C31.6809 36.8486 32.1422 36.7495 32.549 36.8449C32.9631 36.9403 33.2973 37.2375 33.4862 37.6778C33.5334 37.7842 33.4862 37.909 33.3772 37.9567C33.2683 38.0044 33.1484 37.953 33.1012 37.8466C32.9668 37.5274 32.7452 37.3256 32.4582 37.2596C32.1567 37.1898 31.8007 37.2706 31.4338 37.4907C30.9253 37.7953 30.4567 38.3199 30.1116 38.9731C29.7665 39.6262 29.5922 40.3196 29.6176 40.9287C29.6394 41.4607 29.8174 41.8643 30.1152 42.0698C30.4058 42.2716 30.8018 42.2679 31.2341 42.0698C31.3394 42.0221 31.4629 42.0661 31.5138 42.1725C31.5646 42.279 31.5174 42.4037 31.412 42.4551C31.1396 42.5835 30.8708 42.6495 30.6202 42.6495L30.6129 42.6422Z" fill="#2D9793"/>
<path fill-rule="evenodd" clip-rule="evenodd" d="M30.6709 40.7236V41.9418L31.7171 42.5545V41.3327L30.6709 40.7236Z" fill="#F7BFBA"/>
</g>
<mask id="mask12_1301_1037" style="mask-type:luminance" maskUnits="userSpaceOnUse" x="31" y="37" width="6" height="7">
<path d="M36.2256 37.9082H31.082V43.7385H36.2256V37.9082Z" fill="white"/>
</mask>
<g mask="url(#mask12_1301_1037)">
<path fill-rule="evenodd" clip-rule="evenodd" d="M36.2222 38.6306L35.176 39.2396L34.1299 38.6306L35.176 38.0215L36.2222 38.6306Z" fill="#F7BFBA"/>
<path d="M32.5025 43.7418C32.2301 43.7418 31.9795 43.6648 31.7651 43.518C31.3547 43.2355 31.1149 42.7108 31.0859 42.043C31.0568 41.3605 31.2493 40.5863 31.6307 39.8709C32.0122 39.1517 32.5352 38.5683 33.1092 38.2234C33.5705 37.9482 34.0318 37.8492 34.4387 37.9446C34.8528 38.04 35.187 38.3372 35.3758 38.7775C35.4231 38.8839 35.3758 39.0086 35.2669 39.0563C35.1579 39.104 35.038 39.0526 34.9908 38.9462C34.8564 38.627 34.6348 38.4252 34.3479 38.3592C34.0464 38.2895 33.6904 38.3702 33.3235 38.5903C32.8149 38.8949 32.3463 39.4196 32.0013 40.0727C31.6562 40.7258 31.4818 41.4192 31.5072 42.0283C31.529 42.5603 31.707 42.964 32.0049 43.1694C32.2955 43.3712 32.6914 43.3676 33.1201 43.1694C33.2254 43.1217 33.3489 43.1658 33.3998 43.2722C33.4506 43.3786 33.4034 43.5033 33.2981 43.5547C33.0256 43.6831 32.7568 43.7491 32.5025 43.7491V43.7418Z" fill="#2D9793"/>
<path fill-rule="evenodd" clip-rule="evenodd" d="M32.5605 41.8232V43.0414L33.6067 43.6542V42.4323L32.5605 41.8232Z" fill="#F7BFBA"/>
</g>
<mask id="mask13_1301_1037" style="mask-type:luminance" maskUnits="userSpaceOnUse" x="32" y="39" width="7" height="6">
<path d="M38.1104 39.0088H32.9668V44.8391H38.1104V39.0088Z" fill="white"/>
</mask>
<g mask="url(#mask13_1301_1037)">
<path fill-rule="evenodd" clip-rule="evenodd" d="M38.1109 39.7319L37.0647 40.341L36.0186 39.7319L37.0647 39.1191L38.1109 39.7319Z" fill="#F7BFBA"/>
<path d="M34.3873 44.8429C34.1149 44.8429 33.8642 44.7695 33.6499 44.6191C33.2394 44.3366 32.9997 43.8119 32.9706 43.1441C32.9416 42.4616 33.1341 41.6874 33.5155 40.972C33.8969 40.2528 34.42 39.6694 34.9939 39.3245C35.4553 39.0457 35.9166 38.9503 36.3234 39.0457C36.7375 39.1411 37.0717 39.4383 37.2606 39.8786C37.3078 39.985 37.2606 40.1097 37.1516 40.1574C37.0463 40.2051 36.9228 40.1537 36.8756 40.0473C36.7412 39.7281 36.5196 39.5263 36.2326 39.4603C35.9311 39.3906 35.5751 39.4713 35.2083 39.6914C34.6997 39.996 34.2311 40.5207 33.886 41.1738C33.5409 41.8269 33.3666 42.5203 33.392 43.1294C33.4138 43.6614 33.5918 44.0651 33.8897 44.2705C34.1803 44.4723 34.5762 44.4723 35.0048 44.2705C35.1102 44.2228 35.2337 44.2669 35.2845 44.3733C35.3354 44.4797 35.2882 44.6044 35.1828 44.6558C34.9104 44.7842 34.6416 44.8503 34.3909 44.8503L34.3873 44.8429Z" fill="#2D9793"/>
<path fill-rule="evenodd" clip-rule="evenodd" d="M34.4453 42.9199V44.1417L35.4915 44.7508V43.5327L34.4453 42.9199Z" fill="#F7BFBA"/>
</g>
<mask id="mask14_1301_1037" style="mask-type:luminance" maskUnits="userSpaceOnUse" x="34" y="40" width="6" height="6">
<path d="M39.9962 40.1094H34.8525V45.9397H39.9962V40.1094Z" fill="white"/>
</mask>
<g mask="url(#mask14_1301_1037)">
<path fill-rule="evenodd" clip-rule="evenodd" d="M39.9966 40.8315L38.9505 41.4406L37.9043 40.8315L38.9505 40.2188L39.9966 40.8315Z" fill="#F7BFBA"/>
<path d="M36.2731 45.943C36.0006 45.943 35.75 45.8696 35.5357 45.7192C35.1252 45.4366 34.8854 44.912 34.8564 44.2442C34.8273 43.5617 35.0198 42.7875 35.4013 42.072C35.7827 41.3529 36.3057 40.7695 36.8797 40.4246C37.341 40.1494 37.8023 40.0503 38.2128 40.1457C38.6269 40.2411 38.9611 40.5383 39.15 40.9786C39.1972 41.085 39.15 41.2098 39.041 41.2575C38.932 41.3052 38.8122 41.2538 38.7649 41.1474C38.6305 40.8282 38.409 40.6264 38.122 40.5603C37.8205 40.4906 37.4645 40.5713 37.0976 40.7915C36.5891 41.096 36.1205 41.6207 35.7754 42.2738C35.4303 42.9269 35.256 43.6204 35.2814 44.2295C35.3032 44.7615 35.4812 45.1651 35.779 45.3706C36.0696 45.5724 36.4656 45.5687 36.8942 45.3706C36.9996 45.3229 37.1231 45.3669 37.1739 45.4733C37.2248 45.5797 37.1775 45.7045 37.0722 45.7559C36.7998 45.8843 36.531 45.9503 36.2803 45.9503L36.2731 45.943Z" fill="#2D9793"/>
<path fill-rule="evenodd" clip-rule="evenodd" d="M36.3311 44.0205V45.2423L37.3772 45.8514V44.6333L36.3311 44.0205Z" fill="#F7BFBA"/>
</g>
<mask id="mask15_1301_1037" style="mask-type:luminance" maskUnits="userSpaceOnUse" x="36" y="41" width="6" height="7">
<path d="M41.8848 41.2109H36.7412V47.0412H41.8848V41.2109Z" fill="white"/>
</mask>
<g mask="url(#mask15_1301_1037)">
<path fill-rule="evenodd" clip-rule="evenodd" d="M41.8814 41.9304L40.8352 42.5431L39.7891 41.9304L40.8352 41.3213L41.8814 41.9304Z" fill="#F7BFBA"/>
<path d="M38.1617 47.0416C37.8893 47.0416 37.6386 46.9682 37.4243 46.8178C37.0139 46.5353 36.7741 46.0106 36.7451 45.3428C36.716 44.6603 36.9085 43.8861 37.2899 43.1707C37.6713 42.4515 38.1944 41.8681 38.7684 41.5232C39.2297 41.248 39.691 41.149 40.0978 41.2444C40.512 41.3398 40.8461 41.637 41.035 42.0773C41.0823 42.1837 41.035 42.3084 40.9261 42.3561C40.8207 42.4038 40.6972 42.3524 40.65 42.246C40.5156 41.9268 40.294 41.725 40.007 41.659C39.7055 41.5893 39.3496 41.67 38.9827 41.8901C38.4741 42.1947 38.0055 42.7194 37.6604 43.3725C37.3154 44.0256 37.141 44.719 37.1664 45.3281C37.1882 45.8601 37.3662 46.2638 37.6641 46.4692C37.9547 46.671 38.3506 46.6674 38.7793 46.4692C38.8846 46.4215 39.0081 46.4656 39.059 46.572C39.1098 46.6784 39.0626 46.8031 38.9572 46.8545C38.6848 46.9829 38.416 47.049 38.1617 47.049V47.0416Z" fill="#2D9793"/>
<path fill-rule="evenodd" clip-rule="evenodd" d="M38.2197 45.123V46.3449L39.2659 46.954V45.7321L38.2197 45.123Z" fill="#F7BFBA"/>
</g>
<mask id="mask16_1301_1037" style="mask-type:luminance" maskUnits="userSpaceOnUse" x="38" y="42" width="6" height="7">
<path d="M43.7696 42.3115H38.626V48.1418H43.7696V42.3115Z" fill="white"/>
</mask>
<g mask="url(#mask16_1301_1037)">
<path fill-rule="evenodd" clip-rule="evenodd" d="M43.7698 43.031L42.72 43.64L41.6738 43.031L42.72 42.4219L43.7698 43.031Z" fill="#F7BFBA"/>
<path d="M40.0465 48.1417C39.7741 48.1417 39.5234 48.0684 39.3091 47.9179C38.8986 47.6354 38.6589 47.1107 38.6298 46.4429C38.6008 45.7605 38.7933 44.9863 39.1747 44.2708C39.5561 43.5516 40.0792 42.9682 40.6531 42.6233C41.1144 42.3445 41.5758 42.2491 41.9826 42.3445C42.3967 42.4399 42.7309 42.7371 42.9198 43.1774C42.967 43.2838 42.9198 43.4085 42.8108 43.4562C42.7018 43.5039 42.582 43.4526 42.5348 43.3462C42.4004 43.0269 42.1788 42.8251 41.8918 42.7591C41.5903 42.6894 41.2343 42.7701 40.8674 42.9903C40.3589 43.2948 39.8903 43.8195 39.5452 44.4726C39.2001 45.1257 39.0258 45.8192 39.0512 46.4282C39.073 46.9603 39.251 47.3639 39.5488 47.5694C39.8394 47.7712 40.2354 47.7712 40.6677 47.5694C40.773 47.518 40.8965 47.5694 40.9474 47.6721C40.9982 47.7785 40.951 47.9032 40.8456 47.9546C40.5732 48.083 40.3044 48.1491 40.0538 48.1491L40.0465 48.1417Z" fill="#2D9793"/>
<path fill-rule="evenodd" clip-rule="evenodd" d="M40.1045 46.2227V47.4408L41.1507 48.0536V46.8317L40.1045 46.2227Z" fill="#F7BFBA"/>
</g>
<mask id="mask17_1301_1037" style="mask-type:luminance" maskUnits="userSpaceOnUse" x="40" y="43" width="6" height="7">
<path d="M45.6553 43.4121H40.5117V49.2424H45.6553V43.4121Z" fill="white"/>
</mask>
<g mask="url(#mask17_1301_1037)">
<path fill-rule="evenodd" clip-rule="evenodd" d="M45.6558 44.1315L44.6096 44.7406L43.5635 44.1315L44.6096 43.5225L45.6558 44.1315Z" fill="#F7BFBA"/>
<path d="M41.9322 49.2423C41.6598 49.2423 41.4092 49.1689 41.1948 49.0185C40.7844 48.736 40.5446 48.2113 40.5156 47.5435C40.4865 46.861 40.679 46.0869 41.0604 45.3714C41.4418 44.6522 41.9649 44.0688 42.5389 43.7239C43.0002 43.4451 43.4615 43.3497 43.872 43.4451C44.2861 43.5405 44.6203 43.8377 44.8092 44.278C44.8564 44.3844 44.8092 44.5091 44.7002 44.5568C44.5912 44.6045 44.4714 44.5532 44.4241 44.4467C44.2897 44.1275 44.0681 43.9257 43.7812 43.8597C43.4797 43.79 43.1237 43.8707 42.7568 44.0908C42.2483 44.3954 41.7797 44.9201 41.4346 45.5732C41.0895 46.2263 40.9151 46.9198 40.9406 47.5288C40.9624 48.0609 41.1404 48.4645 41.4382 48.6699C41.7288 48.8717 42.1248 48.8681 42.5534 48.6699C42.6587 48.6186 42.7822 48.6699 42.8331 48.7727C42.8839 48.8791 42.8367 49.0038 42.7314 49.0552C42.4589 49.1836 42.1901 49.2497 41.9395 49.2497L41.9322 49.2423Z" fill="#2D9793"/>
<path fill-rule="evenodd" clip-rule="evenodd" d="M41.9902 47.3232V48.5414L43.0364 49.1541V47.9323L41.9902 47.3232Z" fill="#F7BFBA"/>
</g>
<mask id="mask18_1301_1037" style="mask-type:luminance" maskUnits="userSpaceOnUse" x="42" y="44" width="6" height="7">
<path d="M47.5401 44.5088H42.3965V50.3391H47.5401V44.5088Z" fill="white"/>
</mask>
<g mask="url(#mask18_1301_1037)">
<path fill-rule="evenodd" clip-rule="evenodd" d="M47.5406 45.2309L46.4944 45.84L45.4482 45.2309L46.4944 44.6182L47.5406 45.2309Z" fill="#F7BFBA"/>
<path d="M43.8209 50.3424C43.5485 50.3424 43.2978 50.269 43.0835 50.1186C42.673 49.8361 42.4333 49.3114 42.4042 48.6436C42.3752 47.9611 42.5677 47.1869 42.9491 46.4714C43.3305 45.7523 43.8536 45.1689 44.4275 44.824C44.8889 44.5488 45.3502 44.4497 45.757 44.5451C46.1711 44.6405 46.5053 44.9377 46.6942 45.378C46.7414 45.4844 46.6942 45.6092 46.5852 45.6569C46.4799 45.7046 46.3564 45.6532 46.3092 45.5468C46.1748 45.2276 45.9532 45.0258 45.6662 44.9598C45.3647 44.89 45.0087 44.9708 44.6419 45.1909C44.1333 45.4954 43.6647 46.0201 43.3196 46.6732C42.9745 47.3264 42.8002 48.0198 42.8256 48.6289C42.8474 49.1609 43.0254 49.5645 43.3233 49.77C43.6139 49.9718 44.0098 49.9681 44.4421 49.77C44.5474 49.7186 44.6709 49.77 44.7218 49.8727C44.7726 49.9792 44.7254 50.1039 44.6201 50.1553C44.3476 50.2837 44.0788 50.3497 43.8282 50.3497L43.8209 50.3424Z" fill="#2D9793"/>
<path fill-rule="evenodd" clip-rule="evenodd" d="M43.8789 48.4199V49.6417L44.9251 50.2508V49.0327L43.8789 48.4199Z" fill="#F7BFBA"/>
</g>
<mask id="mask19_1301_1037" style="mask-type:luminance" maskUnits="userSpaceOnUse" x="44" y="45" width="6" height="7">
<path d="M49.4297 45.6094H44.2861V51.4397H49.4297V45.6094Z" fill="white"/>
</mask>
<g mask="url(#mask19_1301_1037)">
<path fill-rule="evenodd" clip-rule="evenodd" d="M49.4263 46.3315L48.3801 46.9406L47.334 46.3315L48.3801 45.7188L49.4263 46.3315Z" fill="#F7BFBA"/>
<path d="M45.7067 51.443C45.4342 51.443 45.1836 51.3696 44.9693 51.2192C44.5588 50.9366 44.319 50.412 44.29 49.7442C44.2609 49.0617 44.4534 48.2875 44.8349 47.572C45.2163 46.8529 45.7393 46.2695 46.3133 45.9246C46.7746 45.6494 47.2359 45.5503 47.6428 45.6457C48.0569 45.7411 48.3911 46.0383 48.58 46.4786C48.6272 46.585 48.58 46.7098 48.471 46.7575C48.362 46.8052 48.2421 46.7538 48.1949 46.6474C48.0605 46.3282 47.8389 46.1264 47.552 46.0603C47.2505 45.9906 46.8945 46.0713 46.5276 46.2915C46.019 46.596 45.5505 47.1207 45.2054 47.7738C44.8603 48.4269 44.6859 49.1204 44.7113 49.7295C44.7331 50.2615 44.9111 50.6651 45.209 50.8706C45.4996 51.0724 45.8955 51.0687 46.3278 50.8706C46.4331 50.8229 46.5567 50.8669 46.6075 50.9733C46.6584 51.0797 46.6111 51.2045 46.5058 51.2559C46.2334 51.3843 45.9646 51.4503 45.7139 51.4503L45.7067 51.443Z" fill="#2D9793"/>
<path fill-rule="evenodd" clip-rule="evenodd" d="M45.7646 49.5205V50.7423L46.8108 51.3514V50.1333L45.7646 49.5205Z" fill="#F7BFBA"/>
</g>
<path d="M20.863 22.9347L19.7551 24.872C19.7333 24.9087 19.7296 24.9527 19.7405 24.9931C19.7514 25.0334 19.7769 25.0664 19.8132 25.0884L28.3423 30.0638C28.404 30.1005 28.4222 30.1776 28.3895 30.2363C28.3532 30.2986 28.2769 30.317 28.2188 30.284L19.3846 25.1325C19.2865 25.0774 19.2211 24.9857 19.1957 24.883C19.1702 24.7802 19.1811 24.6702 19.2356 24.5711L20.3435 22.6338L20.863 22.9383V22.9347Z" fill="#E09C96"/>
<path fill-rule="evenodd" clip-rule="evenodd" d="M18.085 23.0844C18.3974 23.0771 18.7315 23.1615 19.0403 23.3413C19.3491 23.5211 19.5888 23.7742 19.7377 24.0494L21.0527 21.7525C20.7403 21.7599 20.4061 21.6755 20.0974 21.4957C19.7886 21.3159 19.5489 21.0664 19.3999 20.7875C19.0367 20.5747 18.4482 20.9196 18.085 21.5507C17.7253 22.1782 17.7217 22.8569 18.0741 23.0771L18.085 23.0844Z" fill="#E09C96"/>
<path d="M20.9034 24.4092C20.6165 24.578 20.3549 24.5927 20.166 24.4826C20.0898 24.4386 19.8609 24.3028 19.7846 24.2625C19.5957 24.1524 19.4795 23.9176 19.4795 23.58C19.4795 23.2424 19.5957 22.8718 19.7846 22.5453C19.9735 22.2151 20.2314 21.9289 20.522 21.7601C20.809 21.5913 21.0705 21.5766 21.2594 21.6867C21.3357 21.7307 21.5645 21.8665 21.6408 21.9069C21.8297 22.0169 21.946 22.2518 21.946 22.5857C21.946 22.9195 21.8297 23.2938 21.6408 23.624C21.4519 23.9542 21.194 24.2404 20.9034 24.4092Z" fill="#CFDAE3"/>
<path fill-rule="evenodd" clip-rule="evenodd" d="M20.126 24.2769L34.4961 32.6572C34.6632 32.7563 34.8957 32.7416 35.1536 32.5912C35.4115 32.4407 35.644 32.1839 35.8111 31.8904C35.9782 31.5968 36.0835 31.2666 36.0835 30.9657C36.0835 30.6685 35.9782 30.4557 35.8111 30.3603L21.4409 21.98C21.2738 21.8809 21.0413 21.8956 20.7834 22.046C20.5255 22.1965 20.293 22.4533 20.126 22.7468C19.9589 23.0404 19.8535 23.3706 19.8535 23.6715C19.8535 23.9723 19.9589 24.1815 20.126 24.2805V24.2769Z" fill="#F6AC6F"/>
<path fill-rule="evenodd" clip-rule="evenodd" d="M35.1534 32.7198C34.8665 32.8885 34.6049 32.9032 34.416 32.7932C34.3398 32.7491 34.1109 32.6134 34.0346 32.573C33.8457 32.4629 33.7295 32.2281 33.7295 31.8905C33.7295 31.553 33.8457 31.1824 34.0346 30.8558C34.2235 30.5256 34.4814 30.2394 34.772 30.0706C35.059 29.9019 35.3205 29.8872 35.5094 29.9973C35.5857 30.0413 35.8145 30.177 35.8908 30.2174C36.0797 30.3275 36.196 30.5623 36.196 30.8962C36.196 31.2338 36.0797 31.6043 35.8908 31.9346C35.7019 32.2648 35.444 32.551 35.1534 32.7198Z" fill="#CFDAE3"/>
<path fill-rule="evenodd" clip-rule="evenodd" d="M43.6395 37.9889L34.5801 32.7054C34.413 32.6063 34.3076 32.3971 34.3076 32.0963C34.3076 31.7991 34.413 31.4652 34.5801 31.1716C34.7471 30.8781 34.9796 30.6213 35.2375 30.4708C35.4954 30.3204 35.7279 30.3057 35.895 30.4048L44.9545 35.6884C46.026 36.3158 46.8978 36.9249 47.8532 37.7247L49.9782 39.5006L49.4224 40.4729L46.8361 39.5043C45.6737 39.0677 44.7147 38.6127 43.6431 37.9889H43.6395Z" fill="#E09C96"/>
<path fill-rule="evenodd" clip-rule="evenodd" d="M49.4761 40.4954L50.9509 41.0494L51.2306 40.5578L50.0174 39.5451C50.0174 39.5451 49.9883 39.5157 49.9701 39.5047C49.8975 39.4643 49.7994 39.468 49.6941 39.5341C49.5851 39.5964 49.487 39.7065 49.418 39.8313C49.3454 39.956 49.3018 40.0954 49.3018 40.2202C49.3018 40.3449 49.3454 40.4367 49.418 40.477C49.4362 40.488 49.4543 40.4954 49.4761 40.4991V40.4954Z" fill="#CFDAE3"/>
<path fill-rule="evenodd" clip-rule="evenodd" d="M51.0933 41.0348C51.0389 41.0678 50.988 41.0715 50.9517 41.0495C50.9154 41.0275 50.8936 40.9834 50.8936 40.9211C50.8936 40.8587 50.9154 40.7853 50.9517 40.7229C50.988 40.6606 51.0389 40.6055 51.0933 40.5725C51.1478 40.5395 51.1987 40.5358 51.235 40.5578C51.2713 40.5798 51.2931 40.6239 51.2931 40.6862C51.2931 40.7486 51.2713 40.822 51.235 40.8844C51.1987 40.9468 51.1478 41.0018 51.0933 41.0348Z" fill="#647384"/>
<path fill-rule="evenodd" clip-rule="evenodd" d="M51.413 41.1117L51.2423 41.0127C51.1914 40.9833 51.1733 40.9173 51.2023 40.8659C51.2314 40.8145 51.2968 40.7962 51.3476 40.8255L51.5184 40.9246C51.5692 40.954 51.5874 41.02 51.5583 41.0714C51.5293 41.1227 51.4639 41.1411 51.413 41.1117Z" fill="#788B9D"/>
<path fill-rule="evenodd" clip-rule="evenodd" d="M50.9001 40.8542L51.2125 41.0377L51.2561 41.0267L51.3651 40.8359L51.3542 40.7919L51.0382 40.6084C50.9655 40.6708 50.9183 40.7515 50.8965 40.8542H50.9001Z" fill="#647384"/>
<g style="mix-blend-mode:multiply" opacity="0.18">
<path fill-rule="evenodd" clip-rule="evenodd" d="M51.5548 41.0746L19.7886 22.5453C19.3273 22.5123 18.7279 22.1784 18.5281 21.8262C18.4555 21.7014 18.2956 21.5877 18.085 21.551C18.4482 20.9162 19.0367 20.575 19.3999 20.7842C19.5525 21.063 19.7886 21.3125 20.0974 21.4923C20.2681 21.5914 20.4461 21.6611 20.6241 21.7051C20.8711 21.5877 21.0927 21.5877 21.2598 21.6868L21.6412 21.9069C21.7538 21.973 21.8446 22.0867 21.8954 22.2408L35.0996 29.9423C35.2558 29.9093 35.3974 29.9313 35.5137 29.9974L35.8951 30.2175C36.0077 30.2836 36.0985 30.3973 36.1494 30.5514L44.9582 35.6882C46.0297 36.3157 46.9015 36.9247 47.8569 37.7246L49.9819 39.5005C49.9819 39.5005 50.0146 39.5262 50.0291 39.5408L51.2424 40.5535C51.2787 40.5755 51.3005 40.6196 51.3005 40.682C51.3005 40.704 51.3005 40.7223 51.2932 40.7443L51.3659 40.7847L51.3768 40.8287L51.5257 40.9204C51.5766 40.9498 51.5947 41.0158 51.5657 41.0672L51.5548 41.0746Z" fill="#778D9F"/>
</g>
</svg>
