<?xml version="1.0" encoding="utf-8"?>
<svg width="84" height="62" viewBox="0 0 84 62" fill="none" xmlns="http://www.w3.org/2000/svg">
<g clip-path="url(#clip0_1301_933)">
<path d="M14.4456 24.7161V17.7871H18.2309L20.1008 16.1327L19.8795 12.2673L23.2037 11.5991L22.9081 2.53027L61.8034 3.19847L60.9082 11.227L63.2831 11.9696L63.7273 15.0179L65.5853 17.7871H69.6662V30.3154H66.1039L66.3792 55.6781L65.1782 57.9821L62.3456 59.469H22.5601L19.8795 58.7247L17.9843 55.6781V48.3178L14.9659 47.724L15.1145 43.6827L13.7041 42.0012L14.4456 24.7161Z" fill="white"/>
<path d="M61.8308 16.5215H22.5335C21.0679 16.5215 19.8799 17.7113 19.8799 19.179V54.6121C19.8799 56.0798 21.0679 57.2696 22.5335 57.2696H61.8308C63.2963 57.2696 64.4844 56.0798 64.4844 54.6121V19.179C64.4844 17.7113 63.2963 16.5215 61.8308 16.5215Z" fill="#D27C35"/>
<path d="M64.2608 23.0771H20.1006V24.0465H64.2608V23.0771Z" fill="black"/>
<path d="M61.8021 21.8066H22.5605V25.3168H61.8021V21.8066Z" fill="black"/>
<path d="M62.3452 13.167H22.0176V19.6206H62.3452V13.167Z" fill="black"/>
<path d="M59.9044 3.93066H24.46V31.6447H59.9044V3.93066Z" fill="#F2EBD1"/>
<path d="M52.2261 28.5439H32.1357V32.0879H52.2261V28.5439Z" fill="#D27C35"/>
<path d="M61.8021 22.8486H22.5605V23.5134H61.8021V22.8486Z" fill="black"/>
<path d="M33.9486 22.4541H30.7021V23.9072H33.9486V22.4541Z" fill="black"/>
<path d="M53.6605 22.4541H50.4141V23.9072H53.6605V22.4541Z" fill="black"/>
<path d="M45.4506 25.3809H38.912L33.0508 28.754V30.5065L39.3174 26.8983H45.0469L51.4368 30.5776V28.8267L45.4506 25.3809Z" fill="black"/>
<path d="M40.1435 24.7158H38.9121V27.4681H40.1435V24.7158Z" fill="black"/>
<path d="M45.4511 24.7158H44.2197V27.4681H45.4511V24.7158Z" fill="black"/>
<path d="M63.7271 26.709V52.7145C63.7271 53.7616 62.8741 54.6125 61.8319 54.6125H22.5329C21.4873 54.6125 20.6377 53.7616 20.6377 52.7145V26.709H33.2723V31.2003H51.0891V26.709H63.7271Z" fill="#F6AC6F"/>
<path d="M67.0736 21.0947H63.2832V26.0309H67.0736V21.0947Z" fill="black"/>
<path d="M68.3389 19.1318H64.4219V27.9909H68.3389V19.1318Z" fill="black"/>
<path d="M21.0785 21.0947H17.2881V26.0309H21.0785V21.0947Z" fill="black"/>
<path d="M19.9425 19.1318H16.0254V27.9909H19.9425V19.1318Z" fill="black"/>
<path d="M16.9288 41.4517L19.177 27.1523H16.8967L15.6299 41.4517H16.9288Z" fill="black"/>
<path d="M17.6834 46.8608C17.1344 46.8608 16.6885 46.4142 16.6885 45.8644V40.502H17.6834C18.2323 40.502 18.6783 40.9485 18.6783 41.4983V45.8644C18.6783 46.4142 18.2323 46.8608 17.6834 46.8608Z" fill="black"/>
<path d="M62.335 39.3018V50.0573C62.335 51.3446 61.5344 52.4459 60.4094 52.8857C60.0682 53.0193 59.6932 53.0938 59.303 53.0938H25.0613C24.6711 53.0938 24.2961 53.0176 23.9549 52.8806C22.8249 52.4408 22.0293 51.3429 22.0293 50.0556V39.3002C22.0293 37.6221 23.3857 36.2637 25.0613 36.2637H59.303C60.9786 36.2637 62.335 37.6221 62.335 39.3002V39.3018Z" fill="#D27C35"/>
<path d="M62.335 39.3018V45.7554H60.4094V52.8856C60.0682 53.0192 59.6932 53.0937 59.303 53.0937H25.0613C24.6711 53.0937 24.2961 53.0175 23.9549 52.8805V45.7554H22.0293V39.3018H62.3367H62.335Z" fill="black"/>
<path d="M28.654 40.0323C29.1969 39.4886 29.1969 38.6071 28.654 38.0634C28.1111 37.5197 27.2309 37.5197 26.6881 38.0634C26.1452 38.6071 26.1452 39.4886 26.6881 40.0323C27.2309 40.576 28.1111 40.576 28.654 40.0323Z" fill="#FDF9E9"/>
<path d="M32.0456 40.0509C32.5994 39.5183 32.6172 38.637 32.0854 38.0824C31.5536 37.5278 30.6736 37.5099 30.1199 38.0425C29.5661 38.5751 29.5483 39.4564 30.0801 40.011C30.6118 40.5656 31.4919 40.5834 32.0456 40.0509Z" fill="#FDF9E9"/>
<path d="M35.0283 40.3316C35.737 40.0359 36.0722 39.2208 35.7769 38.5111C35.4816 37.8013 34.6677 37.4657 33.959 37.7614C33.2503 38.0571 32.9152 38.8722 33.2105 39.582C33.5057 40.2917 34.3196 40.6274 35.0283 40.3316Z" fill="#FDF9E9"/>
<path d="M38.4414 40.3316C39.1501 40.0359 39.4852 39.2208 39.19 38.5111C38.8947 37.8013 38.0808 37.4657 37.3721 37.7614C36.6634 38.0571 36.3282 38.8722 36.6235 39.582C36.9188 40.2917 37.7327 40.6274 38.4414 40.3316Z" fill="#FDF9E9"/>
<path d="M42.6682 39.3621C42.8439 38.6136 42.3805 37.8641 41.6331 37.6882C40.8857 37.5122 40.1374 37.9763 39.9617 38.7248C39.786 39.4733 40.2494 40.2227 40.9968 40.3987C41.7442 40.5747 42.4925 40.1106 42.6682 39.3621Z" fill="#FDF9E9"/>
<path d="M46.0813 39.3611C46.257 38.6126 45.7936 37.8632 45.0462 37.6872C44.2988 37.5112 43.5505 37.9753 43.3748 38.7238C43.1991 39.4723 43.6625 40.2218 44.4099 40.3977C45.1573 40.5737 45.9056 40.1096 46.0813 39.3611Z" fill="#FDF9E9"/>
<path d="M49.1237 40.0333C49.6666 39.4896 49.6666 38.6081 49.1237 38.0644C48.5809 37.5207 47.7007 37.5207 47.1578 38.0644C46.6149 38.6081 46.6149 39.4896 47.1578 40.0333C47.7007 40.577 48.5809 40.577 49.1237 40.0333Z" fill="#FDF9E9"/>
<path d="M52.641 39.9119C53.1179 39.3093 53.0167 38.4337 52.415 37.9561C51.8134 37.4785 50.939 37.5798 50.4621 38.1824C49.9852 38.7849 50.0864 39.6606 50.6881 40.1382C51.2898 40.6158 52.1641 40.5145 52.641 39.9119Z" fill="#FDF9E9"/>
<path d="M55.8685 40.1096C56.4519 39.6098 56.5204 38.731 56.0213 38.1466C55.5223 37.5623 54.6448 37.4938 54.0613 37.9935C53.4779 38.4933 53.4094 39.3721 53.9084 39.9565C54.4075 40.5408 55.285 40.6093 55.8685 40.1096Z" fill="#FDF9E9"/>
<path d="M58.8823 40.3441C59.5972 40.0638 59.9498 39.2561 59.67 38.5401C59.3901 37.8241 58.5836 37.471 57.8687 37.7513C57.1538 38.0316 56.8011 38.8392 57.081 39.5552C57.3609 40.2712 58.1673 40.6244 58.8823 40.3441Z" fill="#FDF9E9"/>
<path d="M28.653 47.6251C29.1959 47.0814 29.1959 46.1999 28.653 45.6562C28.1102 45.1125 27.23 45.1125 26.6871 45.6562C26.1442 46.1999 26.1442 47.0814 26.6871 47.6251C27.23 48.1688 28.1102 48.1688 28.653 47.6251Z" fill="#FDF9E9"/>
<path d="M32.0446 47.6427C32.5984 47.1101 32.6162 46.2288 32.0844 45.6742C31.5527 45.1196 30.6727 45.1017 30.1189 45.6343C29.5651 46.1669 29.5473 47.0482 30.0791 47.6028C30.6109 48.1574 31.4909 48.1752 32.0446 47.6427Z" fill="#FDF9E9"/>
<path d="M35.0283 47.9254C35.737 47.6297 36.0722 46.8146 35.7769 46.1048C35.4816 45.3951 34.6677 45.0594 33.959 45.3552C33.2503 45.6509 32.9152 46.466 33.2105 47.1757C33.5057 47.8855 34.3196 48.2211 35.0283 47.9254Z" fill="#FDF9E9"/>
<path d="M38.4404 47.9234C39.1491 47.6277 39.4843 46.8126 39.189 46.1029C38.8937 45.3931 38.0798 45.0575 37.3711 45.3532C36.6624 45.6489 36.3273 46.464 36.6226 47.1738C36.9179 47.8835 37.7317 48.2192 38.4404 47.9234Z" fill="#FDF9E9"/>
<path d="M42.6682 46.9539C42.8439 46.2054 42.3805 45.4559 41.6331 45.28C40.8857 45.104 40.1374 45.5681 39.9617 46.3166C39.786 47.0651 40.2494 47.8145 40.9968 47.9905C41.7442 48.1665 42.4925 47.7023 42.6682 46.9539Z" fill="#FDF9E9"/>
<path d="M46.0803 46.9529C46.256 46.2044 45.7926 45.455 45.0452 45.279C44.2978 45.103 43.5495 45.5671 43.3738 46.3156C43.1981 47.0641 43.6615 47.8136 44.4089 47.9895C45.1563 48.1655 45.9046 47.7014 46.0803 46.9529Z" fill="#FDF9E9"/>
<path d="M49.1228 47.6241C49.6657 47.0804 49.6657 46.1989 49.1228 45.6552C48.5799 45.1115 47.6997 45.1115 47.1568 45.6552C46.6139 46.1989 46.6139 47.0804 47.1568 47.6241C47.6997 48.1678 48.5799 48.1678 49.1228 47.6241Z" fill="#FDF9E9"/>
<path d="M52.641 47.5027C53.1179 46.9001 53.0167 46.0245 52.415 45.5469C51.8134 45.0693 50.939 45.1706 50.4621 45.7732C49.9852 46.3758 50.0864 47.2514 50.6881 47.729C51.2898 48.2066 52.1641 48.1053 52.641 47.5027Z" fill="#FDF9E9"/>
<path d="M55.8665 47.7023C56.45 47.2026 56.5184 46.3237 56.0194 45.7394C55.5204 45.1551 54.6428 45.0865 54.0594 45.5863C53.4759 46.0861 53.4075 46.9649 53.9065 47.5492C54.4055 48.1336 55.283 48.2021 55.8665 47.7023Z" fill="#FDF9E9"/>
<path d="M58.8823 47.9349C59.5972 47.6546 59.9498 46.8469 59.67 46.1309C59.3901 45.415 58.5836 45.0618 57.8687 45.3421C57.1538 45.6224 56.8011 46.43 57.081 47.146C57.3609 47.862 58.1673 48.2152 58.8823 47.9349Z" fill="#FDF9E9"/>
<path d="M25.9888 44.2356C26.7565 44.2356 27.3789 43.6123 27.3789 42.8434C27.3789 42.0745 26.7565 41.4512 25.9888 41.4512C25.221 41.4512 24.5986 42.0745 24.5986 42.8434C24.5986 43.6123 25.221 44.2356 25.9888 44.2356Z" fill="#FDF9E9"/>
<path d="M29.3989 44.2356C30.1667 44.2356 30.7891 43.6123 30.7891 42.8434C30.7891 42.0745 30.1667 41.4512 29.3989 41.4512C28.6312 41.4512 28.0088 42.0745 28.0088 42.8434C28.0088 43.6123 28.6312 44.2356 29.3989 44.2356Z" fill="#FDF9E9"/>
<path d="M32.811 44.2356C33.5788 44.2356 34.2012 43.6123 34.2012 42.8434C34.2012 42.0745 33.5788 41.4512 32.811 41.4512C32.0433 41.4512 31.4209 42.0745 31.4209 42.8434C31.4209 43.6123 32.0433 44.2356 32.811 44.2356Z" fill="#FDF9E9"/>
<path d="M36.2232 44.2356C36.9909 44.2356 37.6133 43.6123 37.6133 42.8434C37.6133 42.0745 36.9909 41.4512 36.2232 41.4512C35.4554 41.4512 34.833 42.0745 34.833 42.8434C34.833 43.6123 35.4554 44.2356 36.2232 44.2356Z" fill="#FDF9E9"/>
<path d="M39.6353 44.2356C40.403 44.2356 41.0254 43.6123 41.0254 42.8434C41.0254 42.0745 40.403 41.4512 39.6353 41.4512C38.8675 41.4512 38.2451 42.0745 38.2451 42.8434C38.2451 43.6123 38.8675 44.2356 39.6353 44.2356Z" fill="#FDF9E9"/>
<path d="M43.0474 44.2356C43.8151 44.2356 44.4375 43.6123 44.4375 42.8434C44.4375 42.0745 43.8151 41.4512 43.0474 41.4512C42.2796 41.4512 41.6572 42.0745 41.6572 42.8434C41.6572 43.6123 42.2796 44.2356 43.0474 44.2356Z" fill="#FDF9E9"/>
<path d="M46.4575 44.2356C47.2253 44.2356 47.8477 43.6123 47.8477 42.8434C47.8477 42.0745 47.2253 41.4512 46.4575 41.4512C45.6898 41.4512 45.0674 42.0745 45.0674 42.8434C45.0674 43.6123 45.6898 44.2356 46.4575 44.2356Z" fill="#FDF9E9"/>
<path d="M49.8696 44.2356C50.6374 44.2356 51.2598 43.6123 51.2598 42.8434C51.2598 42.0745 50.6374 41.4512 49.8696 41.4512C49.1019 41.4512 48.4795 42.0745 48.4795 42.8434C48.4795 43.6123 49.1019 44.2356 49.8696 44.2356Z" fill="#FDF9E9"/>
<path d="M53.2817 44.2356C54.0495 44.2356 54.6719 43.6123 54.6719 42.8434C54.6719 42.0745 54.0495 41.4512 53.2817 41.4512C52.514 41.4512 51.8916 42.0745 51.8916 42.8434C51.8916 43.6123 52.514 44.2356 53.2817 44.2356Z" fill="#FDF9E9"/>
<path d="M56.6939 44.2356C57.4616 44.2356 58.084 43.6123 58.084 42.8434C58.084 42.0745 57.4616 41.4512 56.6939 41.4512C55.9261 41.4512 55.3037 42.0745 55.3037 42.8434C55.3037 43.6123 55.9261 44.2356 56.6939 44.2356Z" fill="#FDF9E9"/>
<path d="M53.7922 51.6705H30.5736C29.8675 51.6705 29.2949 51.097 29.2949 50.3899C29.2949 49.6828 29.8675 49.1094 30.5736 49.1094H53.7922C54.4982 49.1094 55.0708 49.6828 55.0708 50.3899C55.0708 51.097 54.4982 51.6705 53.7922 51.6705Z" fill="#FDF9E9"/>
</g>
<defs>
<clipPath id="clip0_1301_933">
<rect width="55.9621" height="56.9388" fill="white" transform="translate(13.7041 2.53027)"/>
</clipPath>
</defs>
</svg>
