<?xml version="1.0" encoding="utf-8"?>
<svg width="83" height="62" viewBox="0 0 83 62" fill="none" xmlns="http://www.w3.org/2000/svg">
<g filter="url(#filter0_d_1301_297)">
<path d="M10.0605 26.5948L10.3772 18.2793L48.2971 5.06152L51.6654 5.3199L72.9393 34.7812L72.6833 41.5873L69.4296 44.1982L31.092 58.837H28.9767L10.0605 26.5948Z" fill="white"/>
</g>
<path d="M68.9984 35.944V39.5272C68.9984 39.5816 69.0119 39.6292 68.9984 39.6836C68.958 40.2208 68.6145 40.7307 68.0755 40.9483L31.7252 55.2064C31.0516 55.4715 30.2903 55.2064 29.9198 54.5808L13.1863 26.4046C12.9774 26.0646 12.9707 25.7587 12.9707 25.3303V21.8967H12.9909L17.848 22.8894L48.3038 12.3981C48.9168 12.1873 49.5905 12.3981 49.9677 12.9284L66.223 35.2369L68.9984 35.9508V35.944Z" fill="#F7BFBA"/>
<path d="M68.9984 35.9434V36.0318C68.9984 36.0318 68.985 36.0726 68.9782 36.0998C68.8907 36.5757 68.574 37.0109 68.0755 37.208L31.7252 51.4661C31.0516 51.7313 30.2903 51.4661 29.9198 50.8406L13.1863 22.6644C13.0448 22.4196 12.9707 22.1612 12.9707 21.8961C12.9707 21.8757 12.9707 21.8553 12.9842 21.8281C13.0044 21.2433 13.3749 20.6926 13.9744 20.4886L48.3038 8.65786C48.9168 8.44708 49.5905 8.65786 49.9677 9.1882L68.7222 34.9371C68.9513 35.2431 69.0389 35.6102 68.9917 35.9502L68.9984 35.9434Z" fill="#F7BFBA"/>
<path d="M68.9983 36.0658V36.5622C68.7154 36.9361 68.3853 37.2217 68.1159 37.3305L31.7655 51.5886C31.5836 51.6634 31.3748 51.6974 31.1795 51.6974C30.6338 51.6974 30.1016 51.4118 29.8052 50.9155L13.0649 22.7324C13.0312 22.6916 12.9975 22.6304 12.9639 22.576V21.8961C12.9639 21.8961 12.9639 21.8553 12.9773 21.8281C12.9773 21.8485 12.9908 21.8689 12.9908 21.8961C13.0582 22.1613 13.1458 22.3993 13.2872 22.576L30.041 50.7795C30.3778 51.337 31.0649 51.5818 31.678 51.337L68.0283 37.0789C68.3247 36.9701 68.7154 36.5758 68.9849 36.0998C68.9983 36.0862 69.0051 36.0794 69.0051 36.0658H68.9983Z" fill="black"/>
<path d="M16.211 22.1818L48.1556 11.1669C48.3375 11.1058 48.5396 11.1669 48.6541 11.3233L57.7215 23.7728C57.8966 24.0108 57.7956 24.3508 57.5194 24.4527L24.5373 36.5419C24.342 36.6167 24.1197 36.5419 24.0051 36.3515L15.9752 22.8277C15.8337 22.5829 15.9483 22.2702 16.211 22.175V22.1818Z" fill="#414143"/>
<path d="M55.7475 23.8612L43.5543 28.3283L40.3747 29.4978L37.8687 30.4089L34.0558 31.8231L31.7182 32.6731L28.9765 33.6793L24.9885 35.1412C24.8133 35.2092 24.6314 35.1412 24.5371 34.978L17.6591 23.4124C17.5446 23.2017 17.6389 22.9229 17.8679 22.8549L31.3949 18.1906L34.1232 17.2591L36.4338 16.4568L40.2467 15.1377L42.7459 14.2878L45.9121 13.1931L47.7714 12.554C47.9331 12.5064 48.1082 12.554 48.1958 12.6968L55.9159 23.3036C56.0641 23.5008 55.9832 23.8068 55.7407 23.8884L55.7475 23.8612Z" fill="#68686B"/>
<path d="M40.3617 38.7512V38.7648C40.3617 38.7648 40.3752 38.7852 40.3617 38.7988V38.9824L40.3483 38.996V39.0708C40.3483 39.0708 40.3348 39.0844 40.3348 39.0912V39.1456C40.3348 39.1456 40.3213 39.1864 40.3213 39.2136V39.268C40.3213 39.268 40.3078 39.2816 40.3078 39.2884V39.3632C40.3078 39.3632 40.2944 39.3632 40.2944 39.3768V39.4516C40.2944 39.4516 40.2944 39.4652 40.2809 39.4652V39.54C40.2809 39.54 40.2809 39.5536 40.2674 39.5604V39.6487L40.2539 39.6623V39.7167C40.2539 39.7167 40.2539 39.7303 40.2405 39.7371C40.2203 40.2879 39.87 40.8046 39.3243 41.0222L38.1252 41.5049L38.0039 41.5593L38.6776 42.7356C38.8527 43.0416 38.9066 43.3816 38.8527 43.7011L38.8191 43.8643V43.8983C38.8191 43.8983 38.8056 43.9187 38.8056 43.9323V44.0343H38.7921V44.1227C38.7921 44.1227 38.7921 44.1363 38.7786 44.1363V44.2247H38.7652V44.2995C38.7652 44.2995 38.7652 44.3334 38.7517 44.3402V44.4082C38.7517 44.4082 38.7517 44.4218 38.7382 44.4218V44.5238H38.7248V44.6122C38.7248 44.6122 38.7113 44.6122 38.7113 44.6258V44.6598C38.6102 45.0338 38.3812 45.3601 38.0242 45.5709C37.3303 45.9789 36.4209 45.7341 36.0167 45.0338L34.7771 42.8648L32.4261 43.8099C31.6649 44.1159 30.8161 43.7419 30.5062 42.9872C30.4321 42.8036 30.3984 42.5928 30.4051 42.4025V42.3277C30.4051 42.3277 30.4186 42.3141 30.4186 42.3073V42.2325C30.4186 42.2325 30.4321 42.2189 30.4321 42.2121V42.1373C30.4321 42.1373 30.4456 42.1237 30.4456 42.1169V42.0421L30.459 42.0285V41.9401H30.4725V41.8993C30.4725 41.8993 30.459 41.8789 30.4725 41.8585C30.4725 41.8585 30.486 41.8585 30.486 41.8449V41.7701C30.486 41.7701 30.486 41.7565 30.4994 41.7497V41.6749C30.4994 41.6749 30.4995 41.6613 30.5129 41.6613V41.5933C30.5129 41.5253 30.5264 41.471 30.5331 41.4098C30.5466 41.3418 30.5533 41.2874 30.5736 41.2262C30.587 41.1718 30.6072 41.1038 30.6409 41.0494C30.6813 40.9474 30.742 40.8658 30.8026 40.7774C30.8228 40.7366 30.8565 40.7026 30.9036 40.655C31.0451 40.4919 31.227 40.3695 31.4358 40.2811L32.9515 39.6623L32.3318 38.5609C32.1364 38.2277 32.0893 37.8469 32.1701 37.507C32.1701 37.4866 32.1701 37.4662 32.1836 37.439V37.3982C32.1836 37.3982 32.1971 37.3982 32.1971 37.3846V37.3098C32.1971 37.3098 32.1971 37.2962 32.2105 37.2962V37.2078H32.224V37.1058H32.2375V37.0038C32.2375 37.0038 32.2509 37.0038 32.2509 36.9902V36.9562C32.2509 36.9562 32.2509 36.9358 32.2509 36.9222C32.2509 36.9222 32.2375 36.9086 32.2509 36.9018H32.2644V36.8134C32.2644 36.8134 32.2779 36.8134 32.2779 36.7998V36.7794C32.2779 36.7794 32.2644 36.7455 32.2779 36.7387V36.7183L32.2914 36.7047V36.6911C32.2914 36.6911 32.2779 36.6707 32.2914 36.6707C32.3048 36.6163 32.3116 36.5619 32.3318 36.5075C32.3453 36.4871 32.352 36.4667 32.3655 36.4395C32.3789 36.3987 32.3992 36.3511 32.4194 36.3171C32.453 36.2491 32.4935 36.1879 32.5406 36.1199C32.5945 36.0451 32.6619 35.9635 32.736 35.9023C32.8101 35.8411 32.8909 35.78 32.9785 35.7256C33.6858 35.3176 34.5818 35.5624 34.986 36.2763L36.1851 38.3637L38.3408 37.4866C39.102 37.1874 39.9508 37.5546 40.2607 38.3093C40.2944 38.3977 40.328 38.4861 40.3348 38.5609C40.3483 38.6289 40.355 38.69 40.355 38.758L40.3617 38.7512Z" fill="#E8DD8D"/>
<path d="M40.3617 38.7521V38.7657C40.3617 38.7657 40.3752 38.7861 40.3617 38.7997V38.9833C40.3617 38.9833 40.3482 39.0173 40.3482 39.0377V39.0717C40.3482 39.0717 40.3482 39.1057 40.3348 39.1125V39.1465C40.3348 39.1465 40.3213 39.1873 40.3213 39.2145C40.2135 39.6632 39.8969 40.0508 39.4388 40.2344L37.6604 40.9483L38.0174 41.567L38.691 42.7433C38.8662 43.0493 38.9201 43.3893 38.8662 43.7088L38.8325 43.872V43.906C38.8325 43.906 38.819 43.9264 38.819 43.94V43.9536C38.7113 44.2936 38.4822 44.5791 38.1454 44.7763C37.4515 45.1843 36.5421 44.9395 36.1379 44.2256L34.8984 42.0566L32.5473 43.0153C31.7928 43.3145 30.9373 42.9473 30.6274 42.1926C30.6139 42.1586 30.6072 42.1246 30.6072 42.0906C30.5937 42.0906 30.5937 42.077 30.5937 42.077V42.0634C30.5533 41.9342 30.5264 41.7778 30.5264 41.635V41.567C30.5264 41.499 30.5398 41.4447 30.5466 41.3835C30.5601 41.3155 30.5668 41.2611 30.587 41.1999C30.6005 41.1455 30.6207 41.0775 30.6544 41.0231C30.6948 40.9211 30.7554 40.8395 30.816 40.7511C30.8362 40.7103 30.8699 40.6763 30.9171 40.6287C31.0586 40.4656 31.2404 40.3432 31.4493 40.2548L32.965 39.636L33.2816 39.5137L33.4096 39.4593L32.4261 37.7458C32.3048 37.5351 32.2442 37.3175 32.2307 37.0863V36.9843C32.2307 36.9843 32.2307 36.9639 32.2442 36.9503V36.9367C32.2442 36.9367 32.2442 36.9163 32.2442 36.9027C32.2442 36.9027 32.2307 36.8891 32.2442 36.8823C32.2442 36.8483 32.2577 36.8279 32.2577 36.7939C32.2577 36.7803 32.2577 36.7735 32.2711 36.76C32.2577 36.7464 32.2577 36.726 32.2711 36.7192V36.6988L32.2846 36.6784C32.2711 36.6648 32.2711 36.658 32.2846 36.658C32.2981 36.6036 32.3048 36.5492 32.325 36.4948C32.3385 36.4744 32.3452 36.454 32.3587 36.4268C32.3722 36.386 32.3924 36.3384 32.4126 36.3044C32.4463 36.2364 32.4867 36.1752 32.5339 36.1072C32.5877 36.0324 32.6551 35.9508 32.7292 35.8896C32.8033 35.8284 32.8842 35.7673 32.9717 35.7129C33.6791 35.3049 34.575 35.5497 34.9792 36.2636L36.1783 38.351L38.334 37.4739C39.0952 37.1747 39.944 37.5419 40.2539 38.2966C40.2876 38.385 40.3213 38.4734 40.328 38.5482C40.3415 38.6162 40.3482 38.6773 40.3482 38.7453L40.3617 38.7521Z" fill="#E8DD8D"/>
<g style="mix-blend-mode:overlay" opacity="0.1">
<path d="M34.1233 17.2451L31.7183 32.6727L28.9766 33.6722L31.395 18.1834L34.1233 17.2451Z" fill="white"/>
</g>
<g style="mix-blend-mode:overlay" opacity="0.1">
<path d="M40.2464 15.124L37.8684 30.4088L34.0488 31.8231L36.4336 16.4431L40.2464 15.124Z" fill="white"/>
</g>
<g style="mix-blend-mode:overlay" opacity="0.1">
<path d="M45.9124 13.1729L43.5546 28.3285L40.375 29.4979L42.7463 14.2743L45.9124 13.1729Z" fill="white"/>
</g>
<path d="M50.27 37.3864L58.3671 34.2018C59.0826 33.9203 59.8938 34.2799 60.1727 35.0021L60.2338 35.1605C60.5127 35.8827 60.1564 36.7015 59.4408 36.9829L51.3438 40.1676C50.6282 40.449 49.817 40.0895 49.5382 39.3672L49.477 39.2089C49.1982 38.4866 49.5544 37.6679 50.27 37.3864Z" fill="#E8DD8D"/>
<path d="M58.7726 30.2052V30.9395C58.7389 31.8846 57.661 32.6461 56.3339 32.6461C55.0068 32.6461 53.8818 31.8642 53.8818 30.8987V30.2052H54.0772C54.4477 29.5796 55.3167 29.1377 56.3339 29.1377C57.3511 29.1377 58.2067 29.5796 58.5772 30.2052H58.7726Z" fill="#E8DD8D"/>
<path d="M58.7726 30.2123C58.7726 31.1778 57.6745 31.9597 56.3272 31.9597C54.9799 31.9597 53.8818 31.1778 53.8818 30.2123C53.8818 29.2468 54.9799 28.4648 56.3272 28.4648C57.6745 28.4648 58.7726 29.2468 58.7726 30.2123Z" fill="#E8DD8D"/>
<path d="M58.7726 30.4026V30.9398C58.2943 31.5993 57.3377 32.0956 56.3339 32.0956C55.3302 32.0956 54.3601 31.5653 53.8818 30.8786V30.2734C53.8818 30.2734 53.8953 30.3074 53.8953 30.3142C54.158 31.1029 55.2494 31.8237 56.3339 31.8237C57.4185 31.8237 58.4223 31.2049 58.7321 30.491C58.7321 30.491 58.7366 30.4842 58.7456 30.4706C58.7456 30.4706 58.7658 30.4298 58.7793 30.4026H58.7726Z" fill="black"/>
<path d="M50.7423 33.0265V33.7608C50.7086 34.7059 49.6308 35.4674 48.3037 35.4674C46.9766 35.4674 45.8516 34.6855 45.8516 33.72V33.0265H46.0469C46.4174 32.4009 47.2864 31.959 48.3037 31.959C49.3209 31.959 50.1764 32.4009 50.5469 33.0265H50.7423Z" fill="#F6AC6F"/>
<path d="M50.7423 33.0267C50.7423 33.9922 49.6442 34.7741 48.2969 34.7741C46.9496 34.7741 45.8516 33.9922 45.8516 33.0267C45.8516 32.0612 46.9496 31.2793 48.2969 31.2793C49.6442 31.2793 50.7423 32.0612 50.7423 33.0267Z" fill="#F6AC6F"/>
<path d="M50.7423 33.2239V33.7611C50.264 34.4206 49.3074 34.9169 48.3037 34.9169C47.2999 34.9169 46.3299 34.3866 45.8516 33.6999V33.0947C45.8516 33.0947 45.865 33.1287 45.865 33.1355C46.1278 33.9242 47.2191 34.645 48.3037 34.645C49.3882 34.645 50.392 34.0262 50.7019 33.3123C50.7019 33.3123 50.7064 33.3055 50.7153 33.2919C50.7153 33.2919 50.7356 33.2511 50.749 33.2239H50.7423Z" fill="black"/>
<path d="M59.7428 35.1685C59.7428 35.1685 59.7428 35.6649 59.7293 35.6989C59.7091 35.9844 59.5474 36.2496 59.251 36.3584L57.5063 37.0519C57.1021 37.2083 56.6575 37.0111 56.4958 36.6032L56.4621 36.5148C56.4621 36.5148 56.4486 36.4808 56.4486 36.474C56.4149 36.3856 56.4082 36.3108 56.4082 36.2088V35.7941C56.4217 35.4881 56.6036 35.2025 56.9067 35.0801L58.6515 34.4002C59.0557 34.2438 59.5003 34.441 59.6619 34.849L59.6956 34.9374C59.6956 34.9374 59.7091 34.9782 59.7158 35.0054C59.7293 35.0597 59.7293 35.1141 59.736 35.1821L59.7428 35.1685Z" fill="#B9AFB0"/>
<path d="M59.7428 35.1689C59.7428 35.1689 59.7428 35.6652 59.7293 35.6992C59.6013 35.8828 59.4329 36.0324 59.2578 36.0936L57.6006 36.7395C57.4928 36.7803 57.385 36.7939 57.2637 36.7939C56.9673 36.7939 56.6642 36.6715 56.4486 36.4608C56.4149 36.3724 56.4082 36.2976 56.4082 36.1956V35.8964L56.4486 36.0188C56.516 36.182 56.6777 36.3384 56.8932 36.4336C57.1021 36.522 57.3311 36.5424 57.4928 36.4744L59.1567 35.8284C59.3184 35.7536 59.4935 35.5769 59.6013 35.3525C59.6687 35.2301 59.7024 35.1009 59.7091 34.9785C59.7226 35.0329 59.7226 35.0873 59.7293 35.1553L59.7428 35.1689Z" fill="black"/>
<path d="M53.3297 37.6431C53.3297 37.6431 53.3297 38.1395 53.3162 38.1735C53.296 38.4591 53.1343 38.7242 52.8379 38.833L51.0932 39.5265C50.689 39.6829 50.2444 39.4857 50.0827 39.0778L50.049 38.9894C50.049 38.9894 50.0355 38.9554 50.0355 38.9486C50.0019 38.8602 49.9951 38.7854 49.9951 38.6834V38.2687C50.0086 37.9627 50.1905 37.6771 50.4936 37.5548L52.2384 36.8748C52.6426 36.7184 53.0872 36.9156 53.2489 37.3236L53.2825 37.412C53.2825 37.412 53.296 37.4528 53.3028 37.48C53.3162 37.5344 53.3162 37.5887 53.323 37.6567L53.3297 37.6431Z" fill="#B9AFB0"/>
<path d="M53.3297 37.6435C53.3297 37.6435 53.3297 38.1399 53.3162 38.1739C53.1882 38.3574 53.0198 38.507 52.8447 38.5682L51.1875 39.2141C51.0797 39.2549 50.9719 39.2685 50.8507 39.2685C50.5542 39.2685 50.2511 39.1461 50.0355 38.9354C50.0019 38.847 49.9951 38.7722 49.9951 38.6702V38.371L50.0355 38.4934C50.1029 38.6566 50.2646 38.813 50.4801 38.9082C50.689 38.9966 50.918 39.017 51.0797 38.949L52.7436 38.303C52.9053 38.2282 53.0804 38.0515 53.1882 37.8271C53.2556 37.7047 53.2893 37.5755 53.296 37.4531C53.3095 37.5075 53.3095 37.5619 53.3162 37.6299L53.3297 37.6435Z" fill="black"/>
<path d="M40.3613 38.8125V38.9757C40.3613 38.9757 40.3478 39.0097 40.3478 39.0301V39.0641C40.3478 39.0641 40.3478 39.0981 40.3343 39.1049V39.1389C40.3343 39.1389 40.3209 39.1797 40.3209 39.2069V39.2613C40.3209 39.2613 40.3074 39.2749 40.3074 39.2817V39.3564C40.3074 39.3564 40.2939 39.3564 40.2939 39.37V39.4448C40.2939 39.4448 40.2939 39.4584 40.2805 39.4584V39.5332C40.2805 39.5332 40.2805 39.5468 40.267 39.5536V39.642L40.2535 39.6556V39.71C40.2535 39.71 40.2535 39.7236 40.24 39.7304C40.0447 40.0024 39.7685 40.2336 39.4653 40.3491L37.8418 41.0087L38.1248 41.505L38.7984 42.6677C39.0948 43.1844 39.0679 43.8032 38.7782 44.2859V44.2995C38.7782 44.2995 38.7782 44.3335 38.7647 44.3403V44.3539C38.6098 44.5715 38.4346 44.7483 38.2123 44.8843C37.9631 45.0406 37.6802 45.1018 37.404 45.1018C36.8516 45.1018 36.3126 44.8163 36.0095 44.2859L34.8306 42.2325L32.5873 43.1368C32.1495 43.3136 31.5971 43.266 31.1255 43.0077C30.8426 42.8513 30.6135 42.6473 30.4316 42.3821V42.3277C30.4316 42.3277 30.4451 42.3141 30.4451 42.3073V42.2325C30.4451 42.2325 30.4586 42.2189 30.4586 42.2121V42.1373C30.4586 42.1373 30.4721 42.1238 30.4721 42.117V42.0422L30.4855 42.0286V41.9402H30.499V41.8994C30.5327 41.9674 30.5529 42.0286 30.6001 42.083V42.0966C30.6001 42.0966 30.6001 42.1102 30.6135 42.1102C30.755 42.3957 30.984 42.6269 31.267 42.7833C31.6712 43.0009 32.136 43.0485 32.4998 42.9057L34.9721 41.9062L36.2655 44.1839C36.636 44.8231 37.4511 45.0406 38.0843 44.6803C38.7243 44.3063 38.9466 43.4836 38.5761 42.8309L37.4646 40.9067L39.3845 40.1248C39.9167 39.914 40.3007 39.3768 40.3546 38.8397L40.3613 38.8125Z" fill="black"/>
<path d="M33.5513 39.3974L33.3088 39.5266L33.2953 39.513L32.3253 37.8064C32.2714 37.7044 32.2175 37.5956 32.1973 37.4732C32.1973 37.4528 32.1973 37.4324 32.2107 37.4052V37.3644C32.2107 37.3644 32.2242 37.3644 32.2242 37.3509V37.2761C32.2242 37.2761 32.2242 37.2625 32.2377 37.2625V37.1741H32.2512V37.0721H32.2646V36.9701C32.2646 36.9701 32.2646 36.9157 32.2781 36.8953C32.2781 36.8953 32.2646 36.8817 32.2781 36.8749C32.2781 36.8477 32.2848 36.8205 32.2916 36.7933C32.2916 36.7661 32.2916 36.7457 32.2983 36.7185V36.6981C32.2983 36.6981 32.2983 36.6641 32.3118 36.6573C32.3253 36.6029 32.332 36.5485 32.3522 36.4941C32.2983 36.8681 32.3859 37.3508 32.5812 37.684L33.5648 39.3974H33.5513Z" fill="black"/>
<defs>
<filter id="filter0_d_1301_297" x="10.0605" y="5.06152" width="67.8789" height="56.7754" filterUnits="userSpaceOnUse" color-interpolation-filters="sRGB">
<feFlood flood-opacity="0" result="BackgroundImageFix"/>
<feColorMatrix in="SourceAlpha" type="matrix" values="0 0 0 0 0 0 0 0 0 0 0 0 0 0 0 0 0 0 127 0" result="hardAlpha"/>
<feOffset dx="5" dy="3"/>
<feComposite in2="hardAlpha" operator="out"/>
<feColorMatrix type="matrix" values="0 0 0 0 0 0 0 0 0 0 0 0 0 0 0 0 0 0 1 0"/>
<feBlend mode="normal" in2="BackgroundImageFix" result="effect1_dropShadow_1301_297"/>
<feBlend mode="normal" in="SourceGraphic" in2="effect1_dropShadow_1301_297" result="shape"/>
</filter>
</defs>
</svg>
