<?xml version="1.0" encoding="utf-8"?>
<svg width="41" height="40" viewBox="0 0 41 40" fill="none" xmlns="http://www.w3.org/2000/svg">
<path fill-rule="evenodd" clip-rule="evenodd" d="M13.2086 2.5H27.7914C33.4062 2.5 38 7.09375 38 12.7086V27.2914C38 32.9062 33.4062 37.5 27.7914 37.5H13.2086C7.59375 37.5 3 32.9062 3 27.2914V12.7086C3 7.09375 7.59375 2.5 13.2086 2.5ZM35.0836 12.7086C35.0716 8.68622 31.8138 5.42842 27.7914 5.41641H13.2086C9.18622 5.42842 5.92842 8.68622 5.91641 12.7086V27.2914C5.92842 31.3138 9.18622 34.5716 13.2086 34.5836H27.7914C31.8138 34.5716 35.0716 31.3138 35.0836 27.2914V12.7086ZM29.9789 12.7086C28.7708 12.7086 27.7914 11.7292 27.7914 10.5211C27.7914 9.31297 28.7708 8.33359 29.9789 8.33359C31.187 8.33359 32.1664 9.31297 32.1664 10.5211C32.1677 11.1016 31.9376 11.6588 31.5271 12.0693C31.1166 12.4798 30.5594 12.7098 29.9789 12.7086ZM20.5 11.25C15.6675 11.25 11.75 15.1675 11.75 20C11.75 24.8325 15.6675 28.75 20.5 28.75C25.3325 28.75 29.25 24.8325 29.25 20C29.25 17.6794 28.3281 15.4538 26.6872 13.8128C25.0462 12.1719 22.8206 11.25 20.5 11.25ZM20.5 14.1664C22.8595 14.1664 24.9866 15.5877 25.8895 17.7676C26.7925 19.9474 26.2934 22.4566 24.625 24.125C22.9566 25.7934 20.4474 26.2925 18.2676 25.3895C16.0877 24.4866 14.6664 22.3595 14.6664 20C14.6699 16.7796 17.2796 14.1699 20.5 14.1664Z" fill="black"/>
</svg>
