<?xml version="1.0" encoding="utf-8"?>
<svg width="48" height="40" viewBox="0 0 48 40" fill="none" xmlns="http://www.w3.org/2000/svg">
<path d="M0 40L3.374 29.7283C1.292 26.7217 0.198 23.3133 0.2 19.8183C0.206 8.89167 10.876 0 23.986 0C30.348 0.00166667 36.32 2.06667 40.812 5.81333C45.302 9.56 47.774 14.54 47.772 19.8367C47.766 30.765 37.096 39.6567 23.986 39.6567C20.006 39.655 16.084 38.8233 12.61 37.2433L0 40ZM13.194 33.655C16.546 35.3133 19.746 36.3067 23.978 36.3083C34.874 36.3083 43.75 28.9183 43.756 19.8333C43.76 10.73 34.926 3.35 23.994 3.34667C13.09 3.34667 4.22 10.7367 4.216 19.82C4.214 23.5283 5.518 26.305 7.708 29.21L5.71 35.29L13.194 33.655ZM35.968 24.5483C35.82 24.3417 35.424 24.2183 34.828 23.97C34.234 23.7217 31.312 22.5233 30.766 22.3583C30.222 22.1933 29.826 22.11 29.428 22.6067C29.032 23.1017 27.892 24.2183 27.546 24.5483C27.2 24.8783 26.852 24.92 26.258 24.6717C25.664 24.4233 23.748 23.9017 21.478 22.2133C19.712 20.9 18.518 19.2783 18.172 18.7817C17.826 18.2867 18.136 18.0183 18.432 17.7717C18.7 17.55 19.026 17.1933 19.324 16.9033C19.626 16.6167 19.724 16.41 19.924 16.0783C20.122 15.7483 20.024 15.4583 19.874 15.21C19.724 14.9633 18.536 12.525 18.042 11.5333C17.558 10.5683 17.068 10.6983 16.704 10.6833L15.564 10.6667C15.168 10.6667 14.524 10.79 13.98 11.2867C13.436 11.7833 11.9 12.98 11.9 15.4183C11.9 17.8567 14.03 20.2117 14.326 20.5417C14.624 20.8717 18.516 25.875 24.478 28.02C25.896 28.53 27.004 28.835 27.866 29.0633C29.29 29.44 30.586 29.3867 31.61 29.26C32.752 29.1183 35.126 28.0617 35.622 26.905C36.118 25.7467 36.118 24.755 35.968 24.5483Z" fill="black"/>
</svg>
